<?xml version="1.0" encoding="UTF-8"?>
<svg version="1.1" xmlns="http://www.w3.org/2000/svg" width="822" height="259">
<path d="M0 0 C2.61779216 1.25428027 4.69500674 2.72089166 6.92382812 4.56884766 C10.79739075 7.5035888 15.21591196 9.65050709 19.46484375 11.98828125 C21.48302717 13.13450952 23.49993277 14.28299026 25.515625 15.43359375 C31.51437408 18.8326018 37.57584753 22.10595265 43.65234375 25.36328125 C54.9248615 31.42644579 66.01263471 37.77488533 77.01025391 44.32275391 C79.53065781 45.81661309 82.06420759 47.2851947 84.6015625 48.75 C86.03598687 49.59885837 87.46964208 50.44901852 88.90234375 51.30078125 C89.53140625 51.6568042 90.16046875 52.01282715 90.80859375 52.37963867 C96.00859384 55.53667864 99.74897294 60.11256799 101.26367188 66.0925293 C102.31322227 73.88738459 96.72536232 80.69733553 92.71484375 86.92578125 C92.25384277 87.64636719 91.7928418 88.36695313 91.31787109 89.109375 C88.68505819 93.21246004 86.02377224 97.29614225 83.34765625 101.37109375 C78.74078753 108.39409923 74.2288696 115.47745864 69.7109375 122.55786133 C68.46894284 124.5026739 67.20489541 126.43359625 65.91816711 128.34910583 C64.27709418 130.88317653 63.00524532 133.43416947 61.78556824 136.19390869 C59.10414359 141.79384283 56.26874918 147.4871172 50.25034332 149.92344093 C42.8342421 151.56374553 35.26244417 151.28264565 27.7109375 151.1484375 C25.26194403 151.15736146 22.81296451 151.17147986 20.36402893 151.1905365 C15.24410916 151.21103094 10.12925467 151.17093465 5.01000977 151.0871582 C-1.5356953 150.98460468 -8.07042183 151.03011515 -14.61596775 151.12069035 C-19.66900624 151.17476592 -24.71947422 151.15181844 -29.77250481 151.10577202 C-32.18409871 151.09263676 -34.5959406 151.10275627 -37.00732613 151.13707161 C-55.2846744 151.33273725 -55.2846744 151.33273725 -60.24718475 147.35186195 C-63.49780477 143.59773702 -65.56528222 139.45865405 -67.43262196 134.88743114 C-68.70023401 131.97070268 -70.42960172 129.40667538 -72.19921875 126.7734375 C-72.80725342 125.82460693 -73.41528809 124.87577637 -74.04174805 123.89819336 C-74.65832275 122.93792236 -75.27489746 121.97765137 -75.91015625 120.98828125 C-77.28386421 118.84505852 -78.65756181 116.70182915 -80.03125 114.55859375 C-80.72718262 113.47352539 -81.42311523 112.38845703 -82.14013672 111.27050781 C-85.05067145 106.73211425 -87.95934388 102.19253051 -90.86669922 97.65209961 C-92.23375511 95.51720396 -93.60124282 93.38258474 -94.96923828 91.24829102 C-96.7445208 88.47621785 -98.51549421 85.7014446 -100.28515625 82.92578125 C-101.0423999 81.74653076 -101.0423999 81.74653076 -101.81494141 80.54345703 C-102.49049072 79.48167236 -102.49049072 79.48167236 -103.1796875 78.3984375 C-103.56616455 77.79394775 -103.9526416 77.18945801 -104.35083008 76.56665039 C-106.55731176 72.69161423 -106.58112903 69.2913797 -106.28515625 64.92578125 C-102.99851036 55.06584358 -92.41148263 49.92334055 -83.91015625 45.11328125 C-82.84579346 44.50218506 -81.78143066 43.89108887 -80.68481445 43.26147461 C-77.55799649 41.4713296 -74.42376261 39.69516217 -71.28515625 37.92578125 C-70.48223145 37.47299805 -69.67930664 37.02021484 -68.85205078 36.55371094 C-64.52839723 34.12412834 -60.18816975 31.72538825 -55.84277344 29.33496094 C-51.75010971 27.08001105 -47.66392868 24.81344636 -43.57958984 22.54345703 C-41.26315282 21.25936286 -38.94316278 19.98165679 -36.61962891 18.71044922 C-30.92341355 15.58021201 -25.33692102 12.37020197 -19.86328125 8.86328125 C-5.64332691 -0.1274949 -5.64332691 -0.1274949 0 0 Z " fill="#1D1D1B" transform="translate(154.28515625,82.07421875)"/>
<path d="M0 0 C1.10052704 -0.00708481 2.20105408 -0.01416962 3.33493042 -0.02146912 C4.53764084 -0.0189917 5.74035126 -0.01651428 6.97950745 -0.01396179 C8.24977783 -0.01907272 9.52004822 -0.02418365 10.82881165 -0.02944946 C14.31023372 -0.04283499 17.7915472 -0.04341865 21.27298999 -0.04088616 C24.18056234 -0.03981615 27.08811274 -0.04470058 29.99568039 -0.04949158 C36.85570325 -0.06058521 43.71567136 -0.06102499 50.57569885 -0.05497742 C57.6500961 -0.04893671 64.72429451 -0.0612513 71.79865783 -0.08254749 C77.87521235 -0.10016657 83.95170359 -0.10616437 90.0282827 -0.10290974 C93.65634541 -0.10109723 97.28426627 -0.10372973 100.91230583 -0.11762428 C104.95827509 -0.13253976 109.00383989 -0.12322988 113.04981995 -0.11161804 C114.85084923 -0.12308365 114.85084923 -0.12308365 116.68826294 -0.13478088 C117.7916098 -0.12776657 118.89495667 -0.12075226 120.03173828 -0.11352539 C120.98797309 -0.11369313 121.9442079 -0.11386087 122.92941952 -0.1140337 C127.26923247 0.49966235 130.84927906 2.84809404 133.57936096 6.26069641 C134.72171101 9.67721532 134.70005071 12.91582423 134.69288635 16.4980011 C134.69281082 17.75900635 134.69273529 19.0200116 134.69265747 20.31922913 C134.68755125 21.69034362 134.68233526 23.06145772 134.67701721 24.43257141 C134.67515124 25.83932953 134.67372818 27.24608829 134.67272949 28.65284729 C134.6689184 32.34850368 134.65910016 36.04412054 134.64802551 39.73976135 C134.6377811 43.51366135 134.63322538 47.28756776 134.62818909 51.06147766 C134.6174766 58.46123523 134.60041712 65.86096027 134.57936096 73.26069641 C130.49084669 72.52312181 127.44396075 71.32091025 123.77467346 69.33882141 C122.64521301 68.73183411 121.51575256 68.1248468 120.35206604 67.49946594 C119.13601807 66.83681114 117.92011984 66.17388147 116.70436096 65.51069641 C115.44631812 64.83051948 114.18809656 64.15067302 112.92970276 63.47114563 C105.03445887 59.1961387 97.19800548 54.8214295 89.39186096 50.38569641 C85.78880964 48.34205369 82.18470024 46.3003 78.57936096 44.26069641 C77.73647522 43.78245422 76.89358948 43.30421204 76.02516174 42.81147766 C73.67654188 41.4871621 71.31781339 40.18330853 68.95436096 38.88569641 C68.27349426 38.49784973 67.59262756 38.11000305 66.89112854 37.71040344 C62.89927441 35.54969843 60.90103106 34.98674909 56.57936096 36.26069641 C54.54973642 37.24098297 52.55591507 38.29689416 50.59107971 39.40132141 C50.01941071 39.71986084 49.4477417 40.03840027 48.85874939 40.36659241 C46.99134599 41.4086052 45.12921531 42.45969094 43.26686096 43.51069641 C41.30776591 44.60649017 39.34731899 45.6998376 37.38677979 46.79304504 C36.05815767 47.53406251 34.72996351 48.2758478 33.40219116 49.01838684 C27.18193108 52.4942582 20.91703026 55.8850637 14.64186096 59.26069641 C7.03537538 63.35356115 -0.4906883 67.54233712 -7.90892029 71.96772766 C-10.42063904 73.26069641 -10.42063904 73.26069641 -13.42063904 73.26069641 C-13.51339891 64.74177488 -13.58443386 56.22306504 -13.62788773 47.70376301 C-13.64874555 43.74770558 -13.67702939 39.79199416 -13.72239685 35.83613586 C-13.76592025 32.01708777 -13.78978973 28.19837208 -13.80014801 24.37909508 C-13.80752784 22.92343603 -13.82193924 21.46779479 -13.84355927 20.0122776 C-13.8726818 17.97009374 -13.87659168 15.92927587 -13.8747406 13.88691711 C-13.88362305 12.72553726 -13.89250549 11.56415741 -13.9016571 10.36758423 C-13.31134601 6.55477451 -12.135053 4.96196673 -9.42063904 2.26069641 C-6.21863889 0.26505491 -3.743045 0.00803884 0 0 Z " fill="#21211F" transform="translate(91.42063903808594,26.739303588867188)"/>
<path d="M0 0 C1.22589844 -0.020625 2.45179688 -0.04125 3.71484375 -0.0625 C14.5765556 -0.10857301 25.31605743 0.64820148 33.625 8.25 C37.41636586 13.38668923 37.4293009 19.10156645 36.625 25.25 C34.91750211 30.24397231 31.73428967 33.09477427 27.625 36.25 C28.52992188 37.24580078 28.52992188 37.24580078 29.453125 38.26171875 C30.25234375 39.14472656 31.0515625 40.02773437 31.875 40.9375 C32.66390625 41.80761719 33.4528125 42.67773438 34.265625 43.57421875 C35.04421875 44.45722656 35.8228125 45.34023437 36.625 46.25 C37.79289063 47.55904297 37.79289063 47.55904297 38.984375 48.89453125 C39.52578125 49.67183594 40.0671875 50.44914062 40.625 51.25 C40.295 52.24 39.965 53.23 39.625 54.25 C23.89066225 55.77760561 23.89066225 55.77760561 18.53125 52.1640625 C16.29880705 49.62651901 14.42852784 47.10450449 12.625 44.25 C10.72762632 41.1374223 10.72762632 41.1374223 7.58203125 39.640625 C6.87433594 39.59421875 6.16664063 39.5478125 5.4375 39.5 C4.179375 39.4175 2.92125 39.335 1.625 39.25 C1.63660156 40.24902344 1.64820313 41.24804688 1.66015625 42.27734375 C1.66917969 43.56769531 1.67820312 44.85804688 1.6875 46.1875 C1.69910156 47.47527344 1.71070313 48.76304687 1.72265625 50.08984375 C1.625 53.25 1.625 53.25 0.625 54.25 C-1.88636104 54.34975032 -4.36403415 54.38882183 -6.875 54.375 C-7.57753906 54.37886719 -8.28007813 54.38273437 -9.00390625 54.38671875 C-14.24838622 54.37661378 -14.24838622 54.37661378 -15.375 53.25 C-15.46840434 51.62325222 -15.49245171 49.99245949 -15.48852539 48.36303711 C-15.48844986 47.32203354 -15.48837433 46.28102997 -15.48829651 45.20848083 C-15.48313522 44.0762056 -15.47797394 42.94393036 -15.47265625 41.77734375 C-15.4712413 40.62456436 -15.46982635 39.47178497 -15.46836853 38.28407288 C-15.46275005 34.58518936 -15.45019442 30.88636536 -15.4375 27.1875 C-15.43248738 24.68684983 -15.42792406 22.18619871 -15.42382812 19.68554688 C-15.41277462 13.54034412 -15.39601852 7.39517631 -15.375 1.25 C-10.9299022 -0.9725489 -4.87933111 0.01989534 0 0 Z M1.625 14.25 C1.625 17.88 1.625 21.51 1.625 25.25 C3.87393954 25.35823773 6.12437575 25.43569645 8.375 25.5 C10.25445313 25.56960937 10.25445313 25.56960937 12.171875 25.640625 C15.67195434 25.54093583 15.67195434 25.54093583 18.08203125 23.3984375 C19.89077339 21.33527144 19.89077339 21.33527144 19.5625 18.625 C18.75844454 15.92710239 18.75844454 15.92710239 15.625 14.25 C12.19192835 14.00729175 12.19192835 14.00729175 8.4375 14.125 C7.16519531 14.14304687 5.89289062 14.16109375 4.58203125 14.1796875 C3.60621094 14.20289062 2.63039063 14.22609375 1.625 14.25 Z " fill="#343433" transform="translate(673.375,83.75)"/>
<path d="M0 0 C1.8871875 0.00773437 1.8871875 0.00773437 3.8125 0.015625 C5.070625 0.01046875 6.32875 0.0053125 7.625 0 C10.8125 0.265625 10.8125 0.265625 12.8125 2.265625 C13.03955078 4.23681641 13.03955078 4.23681641 13.0078125 6.6171875 C13.00281738 7.38369629 12.99782227 8.15020508 12.99267578 8.93994141 C12.96536377 10.40052979 12.96536377 10.40052979 12.9375 11.890625 C12.89625 14.984375 12.855 18.078125 12.8125 21.265625 C19.7425 21.265625 26.6725 21.265625 33.8125 21.265625 C33.73343225 15.1026067 33.73343225 15.1026067 33.63232422 8.93994141 C33.6273291 8.17343262 33.62233398 7.40692383 33.6171875 6.6171875 C33.60147705 5.43890381 33.60147705 5.43890381 33.58544922 4.23681641 C33.8125 2.265625 33.8125 2.265625 35.8125 0.265625 C39 0 39 0 42.8125 0.015625 C44.070625 0.01046875 45.32875 0.0053125 46.625 0 C49.8125 0.265625 49.8125 0.265625 51.8125 2.265625 C52.05973816 4.39086914 52.05973816 4.39086914 52.05541992 7.05078125 C52.06003487 8.54242798 52.06003487 8.54242798 52.06474304 10.06420898 C52.05755753 11.14130127 52.05037201 12.21839355 52.04296875 13.328125 C52.04251053 14.430354 52.04205231 15.53258301 52.0415802 16.66821289 C52.03855522 19.00180129 52.03066166 21.33538763 52.01831055 23.66894531 C52.00007586 27.25072342 51.99780067 30.83224287 51.99804688 34.4140625 C51.993131 36.67708558 51.98730238 38.9401069 51.98046875 41.203125 C51.97935593 42.28021729 51.9782431 43.35730957 51.97709656 44.46704102 C51.97071671 45.46147217 51.96433685 46.45590332 51.95776367 47.48046875 C51.95204597 48.79712524 51.95204597 48.79712524 51.94621277 50.14038086 C51.8125 52.265625 51.8125 52.265625 50.8125 54.265625 C48.16659986 54.29247179 45.52096904 54.31238857 42.875 54.328125 C42.12025391 54.33650391 41.36550781 54.34488281 40.58789062 54.35351562 C38.66255687 54.36214941 36.73714419 54.31786833 34.8125 54.265625 C33.8125 53.265625 33.8125 53.265625 33.69897461 51.40795898 C33.70421143 50.61719971 33.70944824 49.82644043 33.71484375 49.01171875 C33.71734131 48.2427124 33.71983887 47.47370605 33.72241211 46.68139648 C33.73151611 45.69856689 33.74062012 44.7157373 33.75 43.703125 C33.770625 40.58875 33.79125 37.474375 33.8125 34.265625 C26.8825 34.265625 19.9525 34.265625 12.8125 34.265625 C12.85208027 40.47355414 12.85208027 40.47355414 12.90258789 46.68139648 C12.90508545 47.45040283 12.90758301 48.21940918 12.91015625 49.01171875 C12.91539307 49.80247803 12.92062988 50.5932373 12.92602539 51.40795898 C12.8125 53.265625 12.8125 53.265625 11.8125 54.265625 C9.1351862 54.36543714 6.48945825 54.40442375 3.8125 54.390625 C2.68714844 54.39642578 2.68714844 54.39642578 1.5390625 54.40234375 C-4.06088947 54.39223553 -4.06088947 54.39223553 -5.1875 53.265625 C-5.29124958 51.68046922 -5.32601889 50.09073034 -5.33276367 48.50219727 C-5.33914352 47.48766983 -5.34552338 46.4731424 -5.35209656 45.4278717 C-5.35320938 44.32374435 -5.3543222 43.219617 -5.35546875 42.08203125 C-5.36046135 40.39327126 -5.36046135 40.39327126 -5.36555481 38.6703949 C-5.37062894 36.28376679 -5.37296299 33.89713155 -5.37280273 31.51049805 C-5.37498851 27.84737526 -5.3931374 24.18455378 -5.41210938 20.52148438 C-5.41504326 18.20833437 -5.41702809 15.89518292 -5.41796875 13.58203125 C-5.42515427 12.47992813 -5.43233978 11.37782501 -5.43974304 10.24232483 C-5.43666641 9.22464523 -5.43358978 8.20696564 -5.43041992 7.15844727 C-5.43184494 6.25989517 -5.43326996 5.36134308 -5.43473816 4.43556213 C-5.00642393 0.6763732 -3.60471543 0.30039295 0 0 Z " fill="#333331" transform="translate(348.1875,83.734375)"/>
<path d="M0 0 C2.80311362 2.18697029 4.98624958 4.34271741 6.0546875 7.76171875 C6.2421875 10.44921875 6.2421875 10.44921875 6.0546875 12.76171875 C4.0684006 14.74800565 0.38471428 14.03650927 -2.3203125 14.07421875 C-3.00609375 14.10322266 -3.691875 14.13222656 -4.3984375 14.16210938 C-6.40625 14.1875 -6.40625 14.1875 -9.9453125 13.76171875 C-11.734375 11.8046875 -11.734375 11.8046875 -12.9453125 9.76171875 C-15.82742552 8.80101441 -17.64381294 8.65589992 -20.6328125 8.69921875 C-21.44105469 8.70824219 -22.24929688 8.71726562 -23.08203125 8.7265625 C-23.69691406 8.73816406 -24.31179688 8.74976562 -24.9453125 8.76171875 C-24.6153125 10.41171875 -24.2853125 12.06171875 -23.9453125 13.76171875 C-23.37087402 13.89747314 -22.79643555 14.03322754 -22.20458984 14.1730957 C-19.57461845 14.79919105 -16.9475133 15.43660187 -14.3203125 16.07421875 C-13.41667969 16.28755859 -12.51304687 16.50089844 -11.58203125 16.72070312 C-4.1503504 18.53793895 1.52560817 20.21971528 6.0546875 26.76171875 C7.78172694 30.21579763 7.41003148 33.97796342 7.0546875 37.76171875 C4.70411889 43.50755313 0.01003052 46.69181408 -5.2578125 49.57421875 C-14.59061128 52.6971168 -26.68162097 51.88862088 -35.63671875 48.03125 C-40.2445912 45.49730999 -43.83625091 42.78696166 -46.3828125 38.13671875 C-46.9453125 35.76171875 -46.9453125 35.76171875 -46.9453125 31.76171875 C-44.19425828 31.65359872 -41.44746163 31.5743693 -38.6953125 31.51171875 C-37.91800781 31.47820312 -37.14070313 31.4446875 -36.33984375 31.41015625 C-30.50493022 31.31041414 -30.50493022 31.31041414 -27.5234375 33.71484375 C-27.00265625 34.3903125 -26.481875 35.06578125 -25.9453125 35.76171875 C-23.42055788 37.02409606 -21.63330784 36.86028279 -18.8203125 36.82421875 C-17.91023438 36.81519531 -17.00015625 36.80617187 -16.0625 36.796875 C-15.36382812 36.78527344 -14.66515625 36.77367187 -13.9453125 36.76171875 C-13.6153125 35.44171875 -13.2853125 34.12171875 -12.9453125 32.76171875 C-18.38932297 30.82809918 -23.84456306 29.72732308 -29.5078125 28.640625 C-36.33031325 26.8962356 -39.90357304 24.30467572 -43.9453125 18.76171875 C-45.29687461 14.70703241 -45.79912912 10.98442615 -44.2265625 6.890625 C-41.21310768 1.24039721 -37.51043016 -1.8684343 -31.4453125 -3.98828125 C-20.61216178 -6.90180321 -9.58428003 -6.10083689 0 0 Z " fill="#2D2D2B" transform="translate(329.9453125,88.23828125)"/>
<path d="M0 0 C0.85428589 -0.00315216 1.70857178 -0.00630432 2.58874512 -0.009552 C3.51272095 -0.00752777 4.43669678 -0.00550354 5.38867188 -0.00341797 C6.33552856 -0.00437469 7.28238525 -0.00533142 8.25793457 -0.00631714 C10.26196357 -0.00699833 12.26599476 -0.00514827 14.27001953 -0.00097656 C17.34477678 0.00437253 20.41938794 -0.00092361 23.49414062 -0.00732422 C25.43815137 -0.00666343 27.38216201 -0.00538224 29.32617188 -0.00341797 C30.71213562 -0.00645432 30.71213562 -0.00645432 32.12609863 -0.009552 C32.98038452 -0.00639984 33.83467041 -0.00324768 34.71484375 0 C35.4682605 0.00079559 36.22167725 0.00159119 36.9979248 0.00241089 C38.85742188 0.12939453 38.85742188 0.12939453 40.85742188 1.12939453 C40.85742188 5.08939453 40.85742188 9.04939453 40.85742188 13.12939453 C38.12063462 14.49778816 35.81477764 14.34574271 32.75585938 14.44580078 C31.54414062 14.48769531 30.33242188 14.52958984 29.08398438 14.57275391 C27.17746094 14.63172852 27.17746094 14.63172852 25.23242188 14.69189453 C23.31429687 14.75666992 23.31429687 14.75666992 21.35742188 14.82275391 C18.1908684 14.92909339 15.02423435 15.03112286 11.85742188 15.12939453 C11.85742188 16.77939453 11.85742188 18.42939453 11.85742188 20.12939453 C12.57921631 20.15445068 13.30101074 20.17950684 14.04467773 20.20532227 C17.29495687 20.32090755 20.54491876 20.44380227 23.79492188 20.56689453 C24.93123047 20.60621094 26.06753906 20.64552734 27.23828125 20.68603516 C28.85766602 20.74887695 28.85766602 20.74887695 30.50976562 20.81298828 C31.50999756 20.849646 32.51022949 20.88630371 33.54077148 20.92407227 C35.85742188 21.12939453 35.85742188 21.12939453 36.85742188 22.12939453 C36.92968689 23.98226955 36.94123407 25.83773331 36.91992188 27.69189453 C36.91089844 28.70380859 36.901875 29.71572266 36.89257812 30.75830078 C36.88097656 31.54076172 36.869375 32.32322266 36.85742188 33.12939453 C34.34065074 34.3877801 32.444489 34.33758426 29.63085938 34.44580078 C28.59960938 34.48769531 27.56835938 34.52958984 26.50585938 34.57275391 C25.425625 34.61207031 24.34539063 34.65138672 23.23242188 34.69189453 C22.14445313 34.73507813 21.05648437 34.77826172 19.93554688 34.82275391 C17.24297018 34.92903983 14.55029934 35.0310751 11.85742188 35.12939453 C11.85742188 36.77939453 11.85742188 38.42939453 11.85742188 40.12939453 C13.12187134 40.16697876 13.12187134 40.16697876 14.41186523 40.20532227 C17.52983862 40.30027609 20.64763691 40.39951901 23.76538086 40.50170898 C25.11656335 40.54510676 26.46780241 40.58677823 27.8190918 40.62670898 C29.75778889 40.68429405 31.69628464 40.74853751 33.63476562 40.81298828 C34.80257568 40.849646 35.97038574 40.88630371 37.17358398 40.92407227 C39.85742188 41.12939453 39.85742188 41.12939453 40.85742188 42.12939453 C40.95593358 43.96055336 40.98714817 45.79559386 40.98242188 47.62939453 C40.98628906 49.12986328 40.98628906 49.12986328 40.99023438 50.66064453 C40.85742188 53.12939453 40.85742188 53.12939453 39.85742188 54.12939453 C38.45066968 54.22744304 37.03907052 54.25737639 35.62890625 54.25878906 C34.28246033 54.2635173 34.28246033 54.2635173 32.90881348 54.26834106 C31.44478088 54.26530472 31.44478088 54.26530472 29.95117188 54.26220703 C28.45861877 54.26364212 28.45861877 54.26364212 26.93591309 54.2651062 C24.8275547 54.26578813 22.71919422 54.26393297 20.61083984 54.25976562 C17.3713716 54.25441756 14.13204202 54.25971021 10.89257812 54.26611328 C8.84960907 54.2654525 6.8066401 54.26417134 4.76367188 54.26220703 C3.78765015 54.26423126 2.81162842 54.26625549 1.80603027 54.26834106 C0.90839966 54.2651889 0.01076904 54.26203674 -0.9140625 54.25878906 C-1.70824585 54.25799347 -2.5024292 54.25719788 -3.32067871 54.25637817 C-5.14257812 54.12939453 -5.14257812 54.12939453 -6.14257812 53.12939453 C-6.23598246 51.50264675 -6.26002983 49.87185402 -6.25610352 48.24243164 C-6.25602798 47.20142807 -6.25595245 46.1604245 -6.25587463 45.08787537 C-6.25071335 43.95560013 -6.24555206 42.82332489 -6.24023438 41.65673828 C-6.23881943 40.50395889 -6.23740448 39.3511795 -6.23594666 38.16346741 C-6.23032818 34.4645839 -6.21777254 30.76575989 -6.20507812 27.06689453 C-6.20006551 24.56624436 -6.19550219 22.06559325 -6.19140625 19.56494141 C-6.18035274 13.41973865 -6.16359664 7.27457084 -6.14257812 1.12939453 C-3.84620162 -0.01879372 -2.55260082 0.0026955 0 0 Z " fill="#343433" transform="translate(611.142578125,83.87060546875)"/>
<path d="M0 0 C1.26457031 0.00322266 2.52914063 0.00644531 3.83203125 0.00976562 C5.67087891 -0.0144043 5.67087891 -0.0144043 7.546875 -0.0390625 C18.59842103 -0.04492228 28.61479578 0.66091698 36.93359375 8.50585938 C41.04963743 13.41344991 40.88118111 17.95101704 40.76953125 24.18945312 C40.21658091 29.73278032 37.57553693 32.17712886 33.83203125 36.00976562 C25.83505253 42.17659001 16.07981002 41.69663886 6.45703125 41.32226562 C6.46863281 42.17691406 6.48023438 43.0315625 6.4921875 43.91210938 C6.50121094 45.01683594 6.51023437 46.1215625 6.51953125 47.25976562 C6.53113281 48.36191406 6.54273438 49.4640625 6.5546875 50.59960938 C6.45703125 53.32226562 6.45703125 53.32226562 5.45703125 54.32226562 C2.76048271 54.39546184 0.09011667 54.414691 -2.60546875 54.38476562 C-3.74338867 54.37799805 -3.74338867 54.37799805 -4.90429688 54.37109375 C-6.78388746 54.35927243 -8.66343774 54.3413364 -10.54296875 54.32226562 C-11.76657525 51.87505262 -11.6763524 50.27281007 -11.68823242 47.53710938 C-11.69461227 46.54267822 -11.70099213 45.54824707 -11.70756531 44.52368164 C-11.70867813 43.44658936 -11.70979095 42.36949707 -11.7109375 41.25976562 C-11.7159301 39.60642212 -11.7159301 39.60642212 -11.72102356 37.91967773 C-11.72609268 35.58610452 -11.72843189 33.25252403 -11.72827148 30.91894531 C-11.73045968 27.33711909 -11.74862044 23.75559988 -11.76757812 20.17382812 C-11.77051162 17.91080835 -11.77249671 15.64778711 -11.7734375 13.38476562 C-11.78062302 12.30767334 -11.78780853 11.23058105 -11.79521179 10.12084961 C-11.79213516 9.12641846 -11.78905853 8.1319873 -11.78588867 7.10742188 C-11.78731369 6.22965088 -11.78873871 5.35187988 -11.79020691 4.44750977 C-11.08825771 -1.58640279 -4.60853971 0.02716717 0 0 Z M6.45703125 14.32226562 C6.45703125 18.61226562 6.45703125 22.90226562 6.45703125 27.32226562 C9.30328125 27.41507813 9.30328125 27.41507813 12.20703125 27.50976562 C13.274375 27.54457031 14.34171875 27.579375 15.44140625 27.61523438 C18.78872198 27.29004179 20.06405566 26.62557468 22.45703125 24.32226562 C23.54271628 22.47958694 23.54271628 22.47958694 23.45703125 20.32226562 C21.68839536 16.62467384 21.68839536 16.62467384 18.45703125 14.32226562 C16.4164812 14.25160946 14.37368868 14.23804587 12.33203125 14.25976562 C10.39328125 14.28039062 8.45453125 14.30101563 6.45703125 14.32226562 Z " fill="#333331" transform="translate(456.54296875,83.677734375)"/>
<path d="M0 0 C1.85141602 -0.0309375 1.85141602 -0.0309375 3.74023438 -0.0625 C13.53388468 -0.10393268 23.87299208 0.49823695 31.5625 7.25 C35.44384651 12.72144653 37.00919044 17.54964335 36.5625 24.25 C34.30568905 31.13921237 30.89169319 35.1853487 24.5 38.5 C19.21784767 41.05216865 14.64885329 41.38421323 8.8125 41.3125 C8.11511719 41.30798828 7.41773438 41.30347656 6.69921875 41.29882812 C4.98694197 41.2871002 3.27470967 41.26916653 1.5625 41.25 C1.57410156 42.10464844 1.58570313 42.95929688 1.59765625 43.83984375 C1.60667969 44.94457031 1.61570312 46.04929688 1.625 47.1875 C1.63660156 48.28964844 1.64820313 49.39179688 1.66015625 50.52734375 C1.5625 53.25 1.5625 53.25 0.5625 54.25 C-1.94886104 54.34975032 -4.42653415 54.38882183 -6.9375 54.375 C-7.64003906 54.37886719 -8.34257813 54.38273437 -9.06640625 54.38671875 C-14.31088622 54.37661378 -14.31088622 54.37661378 -15.4375 53.25 C-15.53090434 51.62325222 -15.55495171 49.99245949 -15.55102539 48.36303711 C-15.55094986 47.32203354 -15.55087433 46.28102997 -15.55079651 45.20848083 C-15.54563522 44.0762056 -15.54047394 42.94393036 -15.53515625 41.77734375 C-15.5337413 40.62456436 -15.53232635 39.47178497 -15.53086853 38.28407288 C-15.52525005 34.58518936 -15.51269442 30.88636536 -15.5 27.1875 C-15.49498738 24.68684983 -15.49042406 22.18619871 -15.48632812 19.68554688 C-15.47527462 13.54034412 -15.45851852 7.39517631 -15.4375 1.25 C-10.97826839 -0.97961581 -4.89493122 0.01988799 0 0 Z M1.5625 14.25 C1.5625 18.54 1.5625 22.83 1.5625 27.25 C3.625 27.3325 5.6875 27.415 7.8125 27.5 C8.97265625 27.54640625 10.1328125 27.5928125 11.328125 27.640625 C14.62397668 27.51245243 14.62397668 27.51245243 16.984375 25.4609375 C18.91350035 23.21098207 18.91350035 23.21098207 18.5625 19.625 C17.9411625 16.26352647 17.9411625 16.26352647 15.890625 15.046875 C12.92953536 14.03334767 10.43581872 14.05710177 7.3125 14.125 C5.415 14.16625 3.5175 14.2075 1.5625 14.25 Z " fill="#2E2E2C" transform="translate(733.4375,83.75)"/>
<path d="M0 0 C1.31613281 -0.03996094 2.63226562 -0.07992187 3.98828125 -0.12109375 C8.6391206 0.58119773 9.80231499 1.78228251 12.6875 5.4375 C14.77449019 8.449576 16.66188061 11.57011155 18.55664062 14.70507812 C19.55221173 16.31330837 20.61460009 17.87979266 21.6875 19.4375 C22.3475 19.4375 23.0075 19.4375 23.6875 19.4375 C24.86554996 17.96990058 24.86554996 17.96990058 25.96484375 16.04296875 C26.61163086 14.98045898 26.61163086 14.98045898 27.27148438 13.89648438 C27.71814453 13.14689453 28.16480469 12.39730469 28.625 11.625 C29.50528793 10.15785346 30.38928299 8.6929235 31.27734375 7.23046875 C31.66784912 6.5758667 32.05835449 5.92126465 32.46069336 5.24682617 C33.74070045 3.3590386 34.92025577 1.8837022 36.6875 0.4375 C39.30040377 0.19281336 41.64840038 0.10873823 44.25 0.1875 C44.93513672 0.19265625 45.62027344 0.1978125 46.32617188 0.203125 C51.37737462 0.28243731 51.37737462 0.28243731 53.6875 1.4375 C53.17191486 6.16666023 50.97187083 9.38659966 48.3125 13.1875 C47.87494385 13.83726807 47.4373877 14.48703613 46.98657227 15.15649414 C44.59744122 18.70365901 42.14385045 22.18914887 39.61328125 25.63671875 C32.71663816 35.28445135 29.99808437 42.52503931 30.6875 54.4375 C28.04159986 54.46434679 25.39596904 54.48426357 22.75 54.5 C21.99525391 54.50837891 21.24050781 54.51675781 20.46289062 54.52539062 C18.53755687 54.53402441 16.61214419 54.48974333 14.6875 54.4375 C14.1925 53.9425 14.1925 53.9425 13.6875 53.4375 C13.69910156 52.50808594 13.71070313 51.57867187 13.72265625 50.62109375 C13.80234379 39.70390059 10.37480928 33.33762544 4.16943359 24.55810547 C1.55287695 20.81388619 -0.89796311 16.96223578 -3.375 13.125 C-4.09018799 12.03952881 -4.09018799 12.03952881 -4.81982422 10.93212891 C-5.26213379 10.25714355 -5.70444336 9.5821582 -6.16015625 8.88671875 C-6.55211182 8.29205811 -6.94406738 7.69739746 -7.34790039 7.0847168 C-8.3125 5.4375 -8.3125 5.4375 -9.3125 2.4375 C-6.49430779 -0.38069221 -3.77144634 0.0323575 0 0 Z " fill="#313130" transform="translate(548.3125,83.5625)"/>
<path d="M0 0 C0.68050415 -0.00095673 1.3610083 -0.00191345 2.06213379 -0.00289917 C3.50122164 -0.00357981 4.94031257 -0.00173357 6.37939453 0.00244141 C8.58503093 0.00779135 10.7904637 0.00249259 12.99609375 -0.00390625 C14.39322962 -0.00324545 15.79036536 -0.00196424 17.1875 0 C19.10079102 0.00169189 19.10079102 0.00169189 21.05273438 0.00341797 C24.09375 0.1328125 24.09375 0.1328125 26.09375 1.1328125 C26.12061553 3.11190648 26.14008375 5.09110221 26.15625 7.0703125 C26.16785156 8.17246094 26.17945313 9.27460937 26.19140625 10.41015625 C26.09375 13.1328125 26.09375 13.1328125 25.09375 14.1328125 C22.45375 14.1328125 19.81375 14.1328125 17.09375 14.1328125 C17.09375 22.7128125 17.09375 31.2928125 17.09375 40.1328125 C19.40375 40.1328125 21.71375 40.1328125 24.09375 40.1328125 C25.08375 40.6278125 25.08375 40.6278125 26.09375 41.1328125 C26.12061553 43.11190648 26.14008375 45.09110221 26.15625 47.0703125 C26.16785156 48.17246094 26.17945313 49.27460938 26.19140625 50.41015625 C26.09375 53.1328125 26.09375 53.1328125 25.09375 54.1328125 C22.65714554 54.23364014 20.24950299 54.27253853 17.8125 54.265625 C17.08381714 54.26658173 16.35513428 54.26753845 15.60437012 54.26852417 C14.0609529 54.26920585 12.51753283 54.26735238 10.97412109 54.26318359 C8.603776 54.25783512 6.23362041 54.26312892 3.86328125 54.26953125 C2.36718708 54.26887047 0.87109303 54.2675893 -0.625 54.265625 C-1.69530457 54.26866135 -1.69530457 54.26866135 -2.78723145 54.27175903 C-7.79129809 54.24776441 -7.79129809 54.24776441 -8.90625 53.1328125 C-8.97869053 51.11317051 -8.99002188 49.09114126 -8.96875 47.0703125 C-8.95972656 45.96558594 -8.95070313 44.86085937 -8.94140625 43.72265625 C-8.92980469 42.86800781 -8.91820312 42.01335937 -8.90625 41.1328125 C-6.90625 40.1328125 -6.90625 40.1328125 0.09375 40.1328125 C0.09375 31.5528125 0.09375 22.9728125 0.09375 14.1328125 C-2.54625 14.1328125 -5.18625 14.1328125 -7.90625 14.1328125 C-8.90625 13.1328125 -8.90625 13.1328125 -9.00390625 10.41015625 C-8.99230469 9.30800781 -8.98070312 8.20585938 -8.96875 7.0703125 C-8.95972656 5.96558594 -8.95070313 4.86085938 -8.94140625 3.72265625 C-8.92980469 2.86800781 -8.91820312 2.01335937 -8.90625 1.1328125 C-5.9519943 -0.34431535 -3.29364796 0.00291252 0 0 Z " fill="#2E2E2C" transform="translate(413.90625,83.8671875)"/>
<path d="M0 0 C1.8871875 0.00773437 1.8871875 0.00773437 3.8125 0.015625 C5.070625 0.01046875 6.32875 0.0053125 7.625 0 C10.8125 0.265625 10.8125 0.265625 12.8125 2.265625 C12.98789436 5.20659237 13.04382375 8.05215849 13.0078125 10.9921875 C13.0049826 11.85500336 13.00215271 12.71781921 12.99923706 13.60678101 C12.98802333 16.3682022 12.96291684 19.1293015 12.9375 21.890625 C12.92747173 23.76041199 12.91834562 25.63020405 12.91015625 27.5 C12.88808012 32.08866609 12.85354234 36.67709093 12.8125 41.265625 C13.65546631 41.26038818 14.49843262 41.25515137 15.36694336 41.24975586 C18.48477936 41.23274674 21.60259177 41.22019094 24.72045898 41.21069336 C26.07170386 41.20565443 27.42294326 41.19882323 28.77416992 41.19018555 C30.71270434 41.17810081 32.651278 41.17292672 34.58984375 41.16796875 C36.34155884 41.16011353 36.34155884 41.16011353 38.12866211 41.15209961 C40.8125 41.265625 40.8125 41.265625 41.8125 42.265625 C41.91101171 44.09678383 41.94222629 45.93182433 41.9375 47.765625 C41.94136719 49.26609375 41.94136719 49.26609375 41.9453125 50.796875 C41.8125 53.265625 41.8125 53.265625 40.8125 54.265625 C39.4057478 54.36367351 37.99414864 54.39360686 36.58398438 54.39501953 C35.23753845 54.39974777 35.23753845 54.39974777 33.8638916 54.40457153 C32.39985901 54.40153519 32.39985901 54.40153519 30.90625 54.3984375 C29.4136969 54.39987259 29.4136969 54.39987259 27.89099121 54.40133667 C25.78263282 54.4020186 23.67427235 54.40016344 21.56591797 54.39599609 C18.32644973 54.39064803 15.08712015 54.39594067 11.84765625 54.40234375 C9.80468719 54.40168297 7.76171822 54.40040181 5.71875 54.3984375 C4.74272827 54.40046173 3.76670654 54.40248596 2.7611084 54.40457153 C1.86347778 54.40141937 0.96584717 54.39826721 0.04101562 54.39501953 C-0.75316772 54.39422394 -1.54735107 54.39342834 -2.36560059 54.39260864 C-4.1875 54.265625 -4.1875 54.265625 -5.1875 53.265625 C-5.29124958 51.68046922 -5.32601889 50.09073034 -5.33276367 48.50219727 C-5.33914352 47.48766983 -5.34552338 46.4731424 -5.35209656 45.4278717 C-5.35320938 44.32374435 -5.3543222 43.219617 -5.35546875 42.08203125 C-5.36046135 40.39327126 -5.36046135 40.39327126 -5.36555481 38.6703949 C-5.37062894 36.28376679 -5.37296299 33.89713155 -5.37280273 31.51049805 C-5.37498851 27.84737526 -5.3931374 24.18455378 -5.41210938 20.52148438 C-5.41504326 18.20833437 -5.41702809 15.89518292 -5.41796875 13.58203125 C-5.42515427 12.47992813 -5.43233978 11.37782501 -5.43974304 10.24232483 C-5.43666641 9.22464523 -5.43358978 8.20696564 -5.43041992 7.15844727 C-5.43184494 6.25989517 -5.43326996 5.36134308 -5.43473816 4.43556213 C-5.00642393 0.6763732 -3.60471543 0.30039295 0 0 Z " fill="#343432" transform="translate(506.1875,83.734375)"/>
<path d="M0 0 C11.22 0 22.44 0 34 0 C32.5 6 32.5 6 31 12 C25.72 11.67 20.44 11.34 15 11 C15 15.62 15 20.24 15 25 C17.31 25 19.62 25 22 25 C21.360625 25.598125 20.72125 26.19625 20.0625 26.8125 C17.79689611 28.90810337 17.79689611 28.90810337 17 32 C17.61875 32.12375 18.2375 32.2475 18.875 32.375 C21 33 21 33 23 35 C20.36 35 17.72 35 15 35 C15 40.61 15 46.22 15 52 C10.05 52 5.1 52 0 52 C0 34.84 0 17.68 0 0 Z " fill="#1B1C1A" transform="translate(659,86)"/>
<path d="M0 0 C0.86625 -0.20625 1.7325 -0.4125 2.625 -0.625 C5 -1 5 -1 7.25 0.25 C9.5867851 2.5867851 9.97024962 4.40324229 10.1328125 7.6640625 C10.13023437 8.64117187 10.12765625 9.61828125 10.125 10.625 C10.12886719 12.09839844 10.12886719 12.09839844 10.1328125 13.6015625 C10 16 10 16 9 17 C7.35 17 5.7 17 4 17 C4 12.71 4 8.42 4 4 C3.01 4 2.02 4 1 4 C1 8.29 1 12.58 1 17 C-0.98 17 -2.96 17 -5 17 C-5 12.71 -5 8.42 -5 4 C-5.99 4 -6.98 4 -8 4 C-8 8.29 -8 12.58 -8 17 C-9.98 17 -11.96 17 -14 17 C-14 11.39 -14 5.78 -14 0 C-7.84825624 -0.76896797 -5.49143665 -0.97625541 0 0 Z " fill="#AAAAA9" transform="translate(532,171)"/>
<path d="M0 0 C0.86625 -0.185625 1.7325 -0.37125 2.625 -0.5625 C5 -1 5 -1 7.25 -0.25 C9 1 9 1 10 4 C10.06937062 6.22818441 10.08457084 8.45834524 10.0625 10.6875 C10.05347656 11.86699219 10.04445313 13.04648438 10.03515625 14.26171875 C10.02355469 15.16535156 10.01195312 16.06898438 10 17 C8.33388095 17.042721 6.66617115 17.04063832 5 17 C4 16 4 16 3.90234375 13.27734375 C3.91394531 12.17519531 3.92554688 11.07304687 3.9375 9.9375 C3.94652344 8.83277344 3.95554687 7.72804687 3.96484375 6.58984375 C3.97644531 5.73519531 3.98804688 4.88054687 4 4 C3.01 4 2.02 4 1 4 C1 8.29 1 12.58 1 17 C-0.65 17 -2.3 17 -4 17 C-5.81115956 15.18884044 -5.38199448 12.38721773 -5.5625 9.9375 C-5.64628906 8.83277344 -5.73007812 7.72804687 -5.81640625 6.58984375 C-5.87699219 5.73519531 -5.93757813 4.88054687 -6 4 C-6.66 4 -7.32 4 -8 4 C-8 8.29 -8 12.58 -8 17 C-9.65 17 -11.3 17 -13 17 C-14.75559942 15.24440058 -14.13221919 12.96417558 -14.13671875 10.62890625 C-14.13285156 9.92636719 -14.12898438 9.22382813 -14.125 8.5 C-14.12886719 7.79746094 -14.13273437 7.09492188 -14.13671875 6.37109375 C-14.12661378 1.12661378 -14.12661378 1.12661378 -13 0 C-8.29179493 -0.92317746 -4.68383226 -0.81457952 0 0 Z " fill="#878787" transform="translate(359,171)"/>
<path d="M0 0 C0.86625 -0.185625 1.7325 -0.37125 2.625 -0.5625 C5.5108108 -1.09409673 6.60400295 -0.62585514 9 1 C10.50156874 4.00313748 10.09281204 6.79067522 10.0625 10.125 C10.05347656 11.40632812 10.04445313 12.68765625 10.03515625 14.0078125 C10.02355469 14.99523437 10.01195312 15.98265625 10 17 C8.35 17 6.7 17 5 17 C4.505 10.565 4.505 10.565 4 4 C3.01 4 2.02 4 1 4 C1 8.29 1 12.58 1 17 C-0.65 17 -2.3 17 -4 17 C-5.81115956 15.18884044 -5.38199448 12.38721773 -5.5625 9.9375 C-5.64628906 8.83277344 -5.73007812 7.72804687 -5.81640625 6.58984375 C-5.90728516 5.30787109 -5.90728516 5.30787109 -6 4 C-6.66 4 -7.32 4 -8 4 C-8 8.29 -8 12.58 -8 17 C-9.65 17 -11.3 17 -13 17 C-13 11.39 -13 5.78 -13 0 C-7.34810776 -0.80741318 -5.14899793 -0.8954779 0 0 Z " fill="#767676" transform="translate(603,171)"/>
<path d="M0 0 C0.70125 -0.20625 1.4025 -0.4125 2.125 -0.625 C4 -1 4 -1 6.59765625 -0.00390625 C9 2 9 2 9.48828125 5.57421875 C9.45514248 6.94616376 9.39563595 8.3176753 9.3125 9.6875 C9.28994141 10.38939453 9.26738281 11.09128906 9.24414062 11.81445312 C9.18531647 13.5438833 9.09563389 15.27221438 9 17 C7.35 17 5.7 17 4 17 C3.505 10.565 3.505 10.565 3 4 C2.01 4 1.02 4 0 4 C0 8.29 0 12.58 0 17 C-1.65 17 -3.3 17 -5 17 C-5.33 12.71 -5.66 8.42 -6 4 C-6.99 4 -7.98 4 -9 4 C-9 8.29 -9 12.58 -9 17 C-10.65 17 -12.3 17 -14 17 C-14 11.39 -14 5.78 -14 0 C-8.30976006 -0.81289142 -5.38028907 -0.8121191 0 0 Z " fill="#6C6C6C" transform="translate(293,171)"/>
<path d="M0 0 C0 1.65 0 3.3 0 5 C1.65 5 3.3 5 5 5 C4.67 6.32 4.34 7.64 4 9 C2.68 9 1.36 9 0 9 C0 12.3 0 15.6 0 19 C0.99 19 1.98 19 3 19 C3 19.99 3 20.98 3 22 C0.125 22.125 0.125 22.125 -3 22 C-5 20 -5 20 -5.1953125 17.3984375 C-5.17210937 16.40070313 -5.14890625 15.40296875 -5.125 14.375 C-5.10695313 13.37210938 -5.08890625 12.36921875 -5.0703125 11.3359375 C-5.04710937 10.56507813 -5.02390625 9.79421875 -5 9 C-5.99 8.67 -6.98 8.34 -8 8 C-8.33 8.66 -8.66 9.32 -9 10 C-10.65 9.67 -12.3 9.34 -14 9 C-13.98839844 9.85464844 -13.97679687 10.70929688 -13.96484375 11.58984375 C-13.95582031 12.69457031 -13.94679688 13.79929688 -13.9375 14.9375 C-13.92589844 16.03964844 -13.91429687 17.14179688 -13.90234375 18.27734375 C-14 21 -14 21 -15 22 C-16.65 22 -18.3 22 -20 22 C-20 16.39 -20 10.78 -20 5 C-15.05 5 -10.1 5 -5 5 C-5 3.68 -5 2.36 -5 1 C-2 0 -2 0 0 0 Z " fill="#8C8C8B" transform="translate(504,166)"/>
<path d="M0 0 C1.98 0 3.96 0 6 0 C6 4.29 6 8.58 6 13 C6.99 13 7.98 13 9 13 C9 8.71 9 4.42 9 0 C10.98 0 12.96 0 15 0 C15.02684679 2.64590014 15.04676357 5.29153096 15.0625 7.9375 C15.07087891 8.69224609 15.07925781 9.44699219 15.08789062 10.22460938 C15.09652441 12.14994313 15.05224333 14.07535581 15 16 C13.26780072 17.73219928 10.97973192 17.21291761 8.625 17.25 C7.64789062 17.27578125 6.67078125 17.3015625 5.6640625 17.328125 C3 17 3 17 1.16015625 15.93359375 C-0.64095111 12.93174816 -0.28253973 10.26561019 -0.1875 6.8125 C-0.16042969 5.54019531 -0.13335938 4.26789063 -0.10546875 2.95703125 C-0.07066406 1.98121094 -0.03585937 1.00539062 0 0 Z " fill="#757575" transform="translate(710,171)"/>
<path d="M0 0 C1 1 1 1 1.09765625 4.37890625 C1.09098369 5.77347077 1.07902532 7.16801743 1.0625 8.5625 C1.05798828 9.27341797 1.05347656 9.98433594 1.04882812 10.71679688 C1.03700864 12.47790013 1.01907263 14.23896036 1 16 C-0.65 16 -2.3 16 -4 16 C-4.33 11.71 -4.66 7.42 -5 3 C-5.99 3 -6.98 3 -8 3 C-8 7.29 -8 11.58 -8 16 C-9.98 16 -11.96 16 -14 16 C-14 10.39 -14 4.78 -14 -1 C-4.87567568 -2.14054054 -4.87567568 -2.14054054 0 0 Z " fill="#6C6C6C" transform="translate(330,172)"/>
<path d="M0 0 C1.50156874 3.00313748 1.09281204 5.79067522 1.0625 9.125 C1.05347656 10.40632812 1.04445313 11.68765625 1.03515625 13.0078125 C1.02355469 13.99523437 1.01195312 14.98265625 1 16 C-0.65 16 -2.3 16 -4 16 C-4.33 12.04 -4.66 8.08 -5 4 C-5.99 3.67 -6.98 3.34 -8 3 C-7.98839844 3.85464844 -7.97679687 4.70929688 -7.96484375 5.58984375 C-7.95582031 6.69457031 -7.94679688 7.79929688 -7.9375 8.9375 C-7.92589844 10.03964844 -7.91429687 11.14179688 -7.90234375 12.27734375 C-8 15 -8 15 -9 16 C-10.65 16 -12.3 16 -14 16 C-14 10.39 -14 4.78 -14 -1 C-4.67357513 -2.16580311 -4.67357513 -2.16580311 0 0 Z " fill="#70706F" transform="translate(756,172)"/>
<path d="M0 0 C3.65225865 1.04350247 4.9852427 1.67921954 7.0625 4.875 C7.83827846 9.18136204 7.79314701 12.62681136 5.5625 16.4375 C1.79885524 18.60159573 -0.61805941 18.35493784 -4.9375 17.875 C-6.875 16.875 -6.875 16.875 -7.9375 14.875 C-9.46828556 8.09580679 -9.46828556 8.09580679 -7.6875 4 C-5.26488441 1.0582525 -3.88328195 -0.16524604 0 0 Z M-1.9375 3.875 C-3.17017348 4.88336062 -3.17017348 4.88336062 -3.03515625 6.94140625 C-3.02355469 7.76511719 -3.01195312 8.58882812 -3 9.4375 C-2.99097656 10.26378906 -2.98195313 11.09007812 -2.97265625 11.94140625 C-2.96105469 12.57949219 -2.94945312 13.21757812 -2.9375 13.875 C-1.6175 13.875 -0.2975 13.875 1.0625 13.875 C1.0625 10.905 1.0625 7.935 1.0625 4.875 C0.0725 4.545 -0.9175 4.215 -1.9375 3.875 Z " fill="#7D7D7C" transform="translate(473.9375,170.125)"/>
<path d="M0 0 C1.23556641 0.01740234 1.23556641 0.01740234 2.49609375 0.03515625 C3.32238281 0.04417969 4.14867187 0.05320313 5 0.0625 C5.63808594 0.07410156 6.27617187 0.08570313 6.93359375 0.09765625 C6.60359375 1.41765625 6.27359375 2.73765625 5.93359375 4.09765625 C4.61359375 3.76765625 3.29359375 3.43765625 1.93359375 3.09765625 C1.93359375 4.74765625 1.93359375 6.39765625 1.93359375 8.09765625 C3.58359375 8.09765625 5.23359375 8.09765625 6.93359375 8.09765625 C6.60359375 9.41765625 6.27359375 10.73765625 5.93359375 12.09765625 C4.61359375 12.09765625 3.29359375 12.09765625 1.93359375 12.09765625 C1.93359375 16.38765625 1.93359375 20.67765625 1.93359375 25.09765625 C0.28359375 25.09765625 -1.36640625 25.09765625 -3.06640625 25.09765625 C-4.06640625 24.09765625 -4.06640625 24.09765625 -4.1640625 21.15625 C-4.15246094 19.96128906 -4.14085937 18.76632813 -4.12890625 17.53515625 C-4.11988281 16.33761719 -4.11085938 15.14007813 -4.1015625 13.90625 C-4.08996094 12.97941406 -4.07835937 12.05257812 -4.06640625 11.09765625 C-4.72640625 11.09765625 -5.38640625 11.09765625 -6.06640625 11.09765625 C-6.06640625 10.10765625 -6.06640625 9.11765625 -6.06640625 8.09765625 C-5.40640625 8.09765625 -4.74640625 8.09765625 -4.06640625 8.09765625 C-3.92203125 6.96328125 -3.77765625 5.82890625 -3.62890625 4.66015625 C-2.9148425 0.13775248 -2.9148425 0.13775248 0 0 Z " fill="#5C5C5B" transform="translate(457.06640625,162.90234375)"/>
<path d="M0 0 C1.60332791 -0.08121924 3.20784026 -0.13929134 4.8125 -0.1875 C6.15248047 -0.23970703 6.15248047 -0.23970703 7.51953125 -0.29296875 C10 0 10 0 11.8125 1.0625 C13.65116062 4.06241996 13.28299327 6.71791125 13.1875 10.1875 C13.16042969 11.45980469 13.13335938 12.73210937 13.10546875 14.04296875 C13.07066406 15.01878906 13.03585937 15.99460938 13 17 C8.71 17 4.42 17 0 17 C-2 12 -2 12 -1.5 9.8125 C0.58698929 7.29072128 2.93366085 6.97861888 6 6 C6.33 5.01 6.66 4.02 7 3 C5.02 3.33 3.04 3.66 1 4 C0.67 2.68 0.34 1.36 0 0 Z M6 10 C5.01 10.495 5.01 10.495 4 11 C4 11.99 4 12.98 4 14 C4.99 14 5.98 14 7 14 C6.67 12.68 6.34 11.36 6 10 Z " fill="#A0A09F" transform="translate(546,171)"/>
<path d="M0 0 C2.1519437 3.22791555 2.20086443 4.28400809 2 8 C-0.97 8 -3.94 8 -7 8 C-6.34 9.32 -5.68 10.64 -5 12 C-3.35 11.34 -1.7 10.68 0 10 C0.33 11.32 0.66 12.64 1 14 C-2.69486103 16.46324069 -4.63293092 16.38991688 -9 16 C-11.10358381 14.45737187 -11.84054159 13.31891683 -13 11 C-13.39069343 6.85864965 -13.43382227 4.68813188 -11.1875 1.125 C-7.2337625 -2.71577357 -4.80172504 -2.04328725 0 0 Z M-6 2 C-6.33 2.99 -6.66 3.98 -7 5 C-6.01 5 -5.02 5 -4 5 C-4 4.01 -4 3.02 -4 2 C-4.66 2 -5.32 2 -6 2 Z " fill="#40403F" transform="translate(434,172)"/>
<path d="M0 0 C2.875 -0.1875 2.875 -0.1875 6 0 C6.66 0.99 7.32 1.98 8 3 C8.391875 2.505 8.78375 2.01 9.1875 1.5 C11.55091715 -0.45593143 13.01435003 -0.24207973 16 0 C14.80100302 3.0831351 13.52299523 6.06279492 12 9 C12.99 10.1446875 12.99 10.1446875 14 11.3125 C16 14 16 14 16 17 C12.85375007 17.26218749 11.38162983 17.24754367 8.6875 15.5 C8.130625 15.005 7.57375 14.51 7 14 C6.5875 14.495 6.175 14.99 5.75 15.5 C4 17 4 17 0 17 C0.64544429 13.51460083 2.10134397 10.97180943 4 8 C3.01 6.8553125 3.01 6.8553125 2 5.6875 C0 3 0 3 0 0 Z " fill="#2A2A29" transform="translate(561,171)"/>
<path d="M0 0 C2.9375 1.5 2.9375 1.5 4.3125 5.125 C4.51875 6.23875 4.725 7.3525 4.9375 8.5 C2.89051586 10.54698414 -1.36661241 10.20045693 -4.0625 10.5 C-4.0625 11.49 -4.0625 12.48 -4.0625 13.5 C-3.485 13.335 -2.9075 13.17 -2.3125 13 C-0.0625 12.5 -0.0625 12.5 3.9375 12.5 C2.0625 16.375 2.0625 16.375 0.9375 17.5 C-2.8091522 17.85345775 -5.21427284 18.00023653 -8.5 16.0625 C-10.80822616 12.2770091 -10.86474763 8.82101693 -10.0625 4.5 C-7.26613381 0.64294319 -4.81122999 -0.78550694 0 0 Z M-4.0625 3.5 C-4.0625 4.49 -4.0625 5.48 -4.0625 6.5 C-3.0725 6.5 -2.0825 6.5 -1.0625 6.5 C-1.3925 5.51 -1.7225 4.52 -2.0625 3.5 C-2.7225 3.5 -3.3825 3.5 -4.0625 3.5 Z " fill="#717170" transform="translate(689.0625,170.5)"/>
<path d="M0 0 C1.35439668 2.70879335 1.06501451 5.00933268 1 8 C-1.97 8 -4.94 8 -8 8 C-7.34 9.32 -6.68 10.64 -6 12 C-4.02 11.34 -2.04 10.68 0 10 C0 11.32 0 12.64 0 14 C-2 16 -2 16 -5.9375 16.3125 C-8.46853946 16.23455132 -9.72749008 16.15823157 -11.9375 14.875 C-13.4899109 12.13545135 -13.87837449 10.16226321 -14 7 C-12.83291018 3.1097006 -12.09923346 0.74272531 -8.6875 -1.5625 C-5.225894 -2.12601726 -3.16695502 -1.43952501 0 0 Z M-7 2 C-7.33 2.99 -7.66 3.98 -8 5 C-6.68 5 -5.36 5 -4 5 C-4.33 4.01 -4.66 3.02 -5 2 C-5.66 2 -6.32 2 -7 2 Z " fill="#6D6D6C" transform="translate(411,172)"/>
<path d="M0 0 C-0.33 1.65 -0.66 3.3 -1 5 C-2.32 5 -3.64 5 -5 5 C-4.195625 5.37125 -3.39125 5.7425 -2.5625 6.125 C0 8 0 8 1 11 C1 14 1 14 -0.0625 15.8125 C-2.74999697 17.45967556 -4.85884839 17.8115309 -8 18 C-10.875 17.0625 -10.875 17.0625 -13 16 C-12.67 14.68 -12.34 13.36 -12 12 C-9.69 12.33 -7.38 12.66 -5 13 C-5.5775 12.566875 -6.155 12.13375 -6.75 11.6875 C-7.4925 11.130625 -8.235 10.57375 -9 10 C-9.7425 9.54625 -10.485 9.0925 -11.25 8.625 C-13 7 -13 7 -13.5625 4.5 C-13 2 -13 2 -11 0.125 C-6.88996997 -1.41626126 -4.28910049 -0.7996628 0 0 Z " fill="#494949" transform="translate(773,171)"/>
<path d="M0 0 C1.35439668 2.70879335 1.06501451 5.00933268 1 8 C-1.97 8 -4.94 8 -8 8 C-7.67 9.32 -7.34 10.64 -7 12 C-6.4225 11.835 -5.845 11.67 -5.25 11.5 C-3 11 -3 11 1 11 C-0.875 14.875 -0.875 14.875 -2 16 C-5.7466522 16.35345775 -8.15177284 16.50023653 -11.4375 14.5625 C-13.75173403 10.76715619 -13.66124009 7.33391095 -13 3 C-11.66719157 0.33438314 -10.83768761 -0.59559909 -8.1875 -1.875 C-5.09621911 -2.05164462 -2.82923056 -1.19456401 0 0 Z M-7 2 C-7 2.99 -7 3.98 -7 5 C-6.01 5 -5.02 5 -4 5 C-4.33 4.01 -4.66 3.02 -5 2 C-5.66 2 -6.32 2 -7 2 Z " fill="#717171" transform="translate(655,172)"/>
<path d="M0 0 C-0.33 1.65 -0.66 3.3 -1 5 C-2.32 5 -3.64 5 -5 5 C-4.195625 5.37125 -3.39125 5.7425 -2.5625 6.125 C0 8 0 8 1 11 C1 14 1 14 -0.0625 15.8125 C-2.74999697 17.45967556 -4.85884839 17.8115309 -8 18 C-10.875 17.0625 -10.875 17.0625 -13 16 C-12.67 14.68 -12.34 13.36 -12 12 C-9.69 12.33 -7.38 12.66 -5 13 C-5.86625 12.38125 -5.86625 12.38125 -6.75 11.75 C-11.15384615 8.32478632 -11.15384615 8.32478632 -13 6 C-13 3.375 -13 3.375 -12 1 C-8.46773496 -2.10839324 -4.27701016 -0.71283503 0 0 Z " fill="#7F7F7F" transform="translate(639,171)"/>
<path d="M0 0 C-0.33 1.65 -0.66 3.3 -1 5 C-3.97 4.505 -3.97 4.505 -7 4 C-5.865625 4.556875 -4.73125 5.11375 -3.5625 5.6875 C-0.14198822 7.6361552 -0.14198822 7.6361552 1 10.5625 C1 13 1 13 0 16 C-4.17006403 18.45297884 -7.3709597 17.90765496 -12 17 C-12.33 15.68 -12.66 14.36 -13 13 C-11.68 13 -10.36 13 -9 13 C-7.65835921 12.7018576 -6.32148827 12.37756808 -5 12 C-5.94875 11.54625 -6.8975 11.0925 -7.875 10.625 C-11 9 -11 9 -13 7 C-13.4375 4.5625 -13.4375 4.5625 -13 2 C-8.81657945 -1.92195676 -5.23114257 -0.97529777 0 0 Z " fill="#6D6D6B" transform="translate(395,171)"/>
<path d="M0 0 C2.97 0 5.94 0 9 0 C9 1.32 9 2.64 9 4 C7.35 3.67 5.7 3.34 4 3 C4 4.65 4 6.3 4 8 C5.65 8 7.3 8 9 8 C8.67 9.32 8.34 10.64 8 12 C6.68 12 5.36 12 4 12 C4 16.29 4 20.58 4 25 C2.35 25 0.7 25 -1 25 C-1.04898437 24.07316406 -1.09796875 23.14632812 -1.1484375 22.19140625 C-1.22320312 20.99386719 -1.29796875 19.79632813 -1.375 18.5625 C-1.44460938 17.36753906 -1.51421875 16.17257813 -1.5859375 14.94140625 C-1.72257812 13.97074219 -1.85921875 13.00007812 -2 12 C-2.66 11.67 -3.32 11.34 -4 11 C-3.67 10.01 -3.34 9.02 -3 8 C-2.34 8 -1.68 8 -1 8 C-1.020625 7.05125 -1.04125 6.1025 -1.0625 5.125 C-1 2 -1 2 0 0 Z " fill="#656565" transform="translate(441,163)"/>
<path d="M0 0 C0 1.65 0 3.3 0 5 C1.65 5 3.3 5 5 5 C4.67 6.32 4.34 7.64 4 9 C2.68 9 1.36 9 0 9 C0 12.3 0 15.6 0 19 C0.99 19 1.98 19 3 19 C3 19.99 3 20.98 3 22 C0.66705225 22.04241723 -1.66702567 22.04092937 -4 22 C-5 21 -5 21 -5.09765625 18.27734375 C-5.08605469 17.17519531 -5.07445312 16.07304687 -5.0625 14.9375 C-5.05347656 13.83277344 -5.04445313 12.72804687 -5.03515625 11.58984375 C-5.02355469 10.73519531 -5.01195312 9.88054687 -5 9 C-6.32 8.67 -7.64 8.34 -9 8 C-9 7.01 -9 6.02 -9 5 C-7.68 5 -6.36 5 -5 5 C-5 3.68 -5 2.36 -5 1 C-3 0 -3 0 0 0 Z " fill="#808080" transform="translate(703,166)"/>
<path d="M0 0 C1.22589844 -0.020625 2.45179688 -0.04125 3.71484375 -0.0625 C11.65851569 -0.09619532 19.10803619 0.50295796 26.625 3.25 C27.285 3.91 27.945 4.57 28.625 5.25 C24.17 5.745 24.17 5.745 19.625 6.25 C19.625 5.59 19.625 4.93 19.625 4.25 C16.68084231 2.77792115 13.66233072 3.0118368 10.4296875 2.93359375 C9.13530762 2.89548584 7.84092773 2.85737793 6.50732422 2.81811523 C4.85490723 2.77501221 3.20249023 2.73190918 1.5 2.6875 C-3.73875 2.543125 -8.9775 2.39875 -14.375 2.25 C-14.375 19.08 -14.375 35.91 -14.375 53.25 C-14.705 53.25 -15.035 53.25 -15.375 53.25 C-15.375 36.09 -15.375 18.93 -15.375 1.25 C-10.9299022 -0.9725489 -4.87933111 0.01989534 0 0 Z " fill="#4C4C4B" transform="translate(673.375,83.75)"/>
<path d="M0 0 C3 2 3 2 3.68040466 3.73516846 C4.08365093 6.59279736 4.11929959 9.35020561 4.11352539 12.23730469 C4.11344986 13.49830994 4.11337433 14.75931519 4.11329651 16.05853271 C4.10819028 17.42964721 4.1029743 18.80076131 4.09765625 20.171875 C4.09579028 21.57863311 4.09436722 22.98539188 4.09336853 24.39215088 C4.08955744 28.08780727 4.0797392 31.78342413 4.06866455 35.47906494 C4.05842014 39.25296494 4.05386442 43.02687135 4.04882812 46.80078125 C4.03811564 54.20053882 4.02105616 61.60026386 4 69 C2.35 68.67 0.7 68.34 -1 68 C0.485 67.505 0.485 67.505 2 67 C1.89249862 58.70716397 1.77986523 50.41442038 1.66066074 42.12174511 C1.60547233 38.27121518 1.55205887 34.42067759 1.50268555 30.57006836 C1.45498176 26.85473844 1.40263679 23.13950036 1.34705925 19.42428017 C1.32666295 18.00611976 1.30794537 16.58793419 1.29092598 15.16972923 C1.26682194 13.18495279 1.2362214 11.20025845 1.20532227 9.21557617 C1.18200584 7.52013924 1.18200584 7.52013924 1.15821838 5.79045105 C1.11747033 2.91571658 1.11747033 2.91571658 0 0 Z " fill="#969695" transform="translate(222,31)"/>
<path d="M0 0 C8.3984375 -0.1953125 8.3984375 -0.1953125 11 0 C13 2 13 2 13.1953125 5.0390625 C13.17210937 6.22242188 13.14890625 7.40578125 13.125 8.625 C13.10695313 9.81351563 13.08890625 11.00203125 13.0703125 12.2265625 C13.04710937 13.14179688 13.02390625 14.05703125 13 15 C11.68 15 10.36 15 9 15 C9 10.71 9 6.42 9 2 C7.68 2.33 6.36 2.66 5 3 C4.67 6.96 4.34 10.92 4 15 C2.68 15 1.36 15 0 15 C0 10.05 0 5.1 0 0 Z " fill="#20201E" transform="translate(519,172)"/>
<path d="M0 0 C3.96 0 7.92 0 12 0 C11.67 1.65 11.34 3.3 11 5 C9.35 4.67 7.7 4.34 6 4 C6.01160156 4.85464844 6.02320313 5.70929688 6.03515625 6.58984375 C6.04417969 7.69457031 6.05320312 8.79929688 6.0625 9.9375 C6.07410156 11.03964844 6.08570313 12.14179688 6.09765625 13.27734375 C6 16 6 16 5 17 C3.35 17 1.7 17 0 17 C0 11.39 0 5.78 0 0 Z " fill="#5E5E5E" transform="translate(666,171)"/>
<path d="M0 0 C3.63 0 7.26 0 11 0 C11 1.65 11 3.3 11 5 C8.03 4.505 8.03 4.505 5 4 C5 8.29 5 12.58 5 17 C3.35 17 1.7 17 0 17 C-1.22329074 13.33012779 -0.88021006 10.66032178 -0.5625 6.8125 C-0.46066406 5.54019531 -0.35882812 4.26789063 -0.25390625 2.95703125 C-0.17011719 1.98121094 -0.08632813 1.00539062 0 0 Z " fill="#7E7E7E" transform="translate(729,171)"/>
<path d="M0 0 C1.65 0 3.3 0 5 0 C5 4.62 5 9.24 5 14 C5.66 14 6.32 14 7 14 C7 14.99 7 15.98 7 17 C5.02 17 3.04 17 1 17 C-1.11441933 13.54839849 -1.24118936 10.81967844 -1.1875 6.8125 C-1.18105469 5.74644531 -1.17460937 4.68039063 -1.16796875 3.58203125 C-1 1 -1 1 0 0 Z " fill="#6C6C6B" transform="translate(307,171)"/>
<path d="M0 0 C1.66611905 -0.042721 3.33382885 -0.04063832 5 0 C6.85403268 1.85403268 6.3889001 4.87846811 6.5625 7.375 C6.64628906 8.53773438 6.73007812 9.70046875 6.81640625 10.8984375 C6.93664215 12.92965666 7 14.96522533 7 17 C4.625 17.125 4.625 17.125 2 17 C0 15 0 15 -0.1953125 11.5234375 C-0.18201493 10.14049032 -0.15816232 8.75761346 -0.125 7.375 C-0.11597656 6.66859375 -0.10695313 5.9621875 -0.09765625 5.234375 C-0.07407603 3.48943902 -0.03820461 1.74467705 0 0 Z " fill="#6A6A6A" transform="translate(617,171)"/>
<path d="M0 0 C1.66611905 -0.042721 3.33382885 -0.04063832 5 0 C7.05922402 2.05922402 6.41427579 6.21708124 6.5625 9.0625 C6.60568359 9.82111328 6.64886719 10.57972656 6.69335938 11.36132812 C6.79973633 13.24065438 6.90039934 15.12030244 7 17 C4.625 17.125 4.625 17.125 2 17 C0 15 0 15 -0.1953125 11.5234375 C-0.18201493 10.14049032 -0.15816232 8.75761346 -0.125 7.375 C-0.11597656 6.66859375 -0.10695313 5.9621875 -0.09765625 5.234375 C-0.07407603 3.48943902 -0.03820461 1.74467705 0 0 Z " fill="#ACACAC" transform="translate(373,171)"/>
<path d="M0 0 C1.65 0 3.3 0 5 0 C5 4.62 5 9.24 5 14 C5.66 14 6.32 14 7 14 C7 14.99 7 15.98 7 17 C5.00045254 17.04254356 2.99958364 17.04080783 1 17 C0 16 0 16 -0.09765625 12.40234375 C-0.0909822 10.91403133 -0.07902183 9.42573568 -0.0625 7.9375 C-0.05798828 7.17888672 -0.05347656 6.42027344 -0.04882812 5.63867188 C-0.0370068 3.75908129 -0.01907078 1.87953101 0 0 Z " fill="#545454" transform="translate(336,171)"/>
<path d="M0 0 C1.65 0 3.3 0 5 0 C5 4.62 5 9.24 5 14 C5.66 14 6.32 14 7 14 C7 14.99 7 15.98 7 17 C4.625 17.125 4.625 17.125 2 17 C0 15 0 15 -0.1953125 11.5234375 C-0.18201493 10.14049032 -0.15816232 8.75761346 -0.125 7.375 C-0.11597656 6.66859375 -0.10695313 5.9621875 -0.09765625 5.234375 C-0.07407603 3.48943902 -0.03820461 1.74467705 0 0 Z " fill="#898989" transform="translate(580,171)"/>
<path d="M0 0 C1.62463842 -0.05395478 3.24978541 -0.09277195 4.875 -0.125 C5.77992188 -0.14820313 6.68484375 -0.17140625 7.6171875 -0.1953125 C10 0 10 0 12 2 C12.1953125 5.2578125 12.1953125 5.2578125 12.125 9.125 C12.10695313 10.40632812 12.08890625 11.68765625 12.0703125 13.0078125 C12.04710937 13.99523437 12.02390625 14.98265625 12 16 C11.01 15.67 10.02 15.34 9 15 C8.67 13.02 8.34 11.04 8 9 C6.68 8.67 5.36 8.34 4 8 C4.99 7.67 5.98 7.34 7 7 C7.73323796 4.98491642 7.73323796 4.98491642 8 3 C5.69 3.33 3.38 3.66 1 4 C0.67 2.68 0.34 1.36 0 0 Z " fill="#242422" transform="translate(546,171)"/>
<path d="M0 0 C2.97 0 5.94 0 9 0 C9 0.99 9 1.98 9 3 C7.68 3 6.36 3 5 3 C5 6.96 5 10.92 5 15 C3.35 15 1.7 15 0 15 C0 10.05 0 5.1 0 0 Z " fill="#696968" transform="translate(485,172)"/>
<path d="M0 0 C0.33 0 0.66 0 1 0 C1 1.98 1 3.96 1 6 C-1.97 6 -4.94 6 -8 6 C-7.34 7.32 -6.68 8.64 -6 10 C-4.02 9.34 -2.04 8.68 0 8 C0 9.32 0 10.64 0 12 C-2 14 -2 14 -5.9375 14.3125 C-8.46853946 14.23455132 -9.72749008 14.15823157 -11.9375 12.875 C-13.44051393 10.22262247 -13.81416141 8.03536365 -14 5 C-13.0625 2.625 -13.0625 2.625 -12 1 C-12 3.64 -12 6.28 -12 9 C-11.34 8.67 -10.68 8.34 -10 8 C-9.67 7.01 -9.34 6.02 -9 5 C-6.03 5 -3.06 5 0 5 C0 3.35 0 1.7 0 0 Z " fill="#7A7A79" transform="translate(411,174)"/>
<path d="M0 0 C2.875 -0.1875 2.875 -0.1875 6 0 C6.66 0.99 7.32 1.98 8 3 C8.391875 2.505 8.78375 2.01 9.1875 1.5 C11.55091715 -0.45593143 13.01435003 -0.24207973 16 0 C14.68775452 3.93673644 13.08089673 6.22719294 10 9 C10 8.34 10 7.68 10 7 C9.34 7 8.68 7 8 7 C7.34 6.01 6.68 5.02 6 4 C5.01 4.99 4.02 5.98 3 7 C0 3.375 0 3.375 0 0 Z " fill="#6F6F6F" transform="translate(561,171)"/>
<path d="M0 0 C-0.33 1.65 -0.66 3.3 -1 5 C-2.32 5 -3.64 5 -5 5 C-6.34789347 5.98028616 -7.68212715 6.97971135 -9 8 C-9.99 8 -10.98 8 -12 8 C-13 7 -13 7 -13.375 4.625 C-13 2 -13 2 -11 0.125 C-6.88996997 -1.41626126 -4.28910049 -0.7996628 0 0 Z " fill="#747474" transform="translate(773,171)"/>
<path d="M0 0 C0.99 0.33 1.98 0.66 3 1 C3 5.62 3 10.24 3 15 C1.35 15 -0.3 15 -2 15 C-2 10.38 -2 5.76 -2 1 C-1.34 0.67 -0.68 0.34 0 0 Z " fill="#4D4D4C" transform="translate(610,173)"/>
<path d="M0 0 C1.32 0.66 2.64 1.32 4 2 C4 6.29 4 10.58 4 15 C2.35 15 0.7 15 -1 15 C-1.02685412 12.68756208 -1.04632841 10.3750373 -1.0625 8.0625 C-1.07410156 6.77472656 -1.08570313 5.48695313 -1.09765625 4.16015625 C-1 1 -1 1 0 0 Z " fill="#4E4E4E" transform="translate(365,173)"/>
<path d="M0 0 C-0.33 1.65 -0.66 3.3 -1 5 C-3.97 4.505 -3.97 4.505 -7 4 C-6.34 4.66 -5.68 5.32 -5 6 C-6.65 6 -8.3 6 -10 6 C-10.33 6.99 -10.66 7.98 -11 9 C-13 7 -13 7 -13.4375 4.5625 C-13 2 -13 2 -11 0.125 C-6.88996997 -1.41626126 -4.28910049 -0.7996628 0 0 Z " fill="#8D8D8D" transform="translate(395,171)"/>
<path d="M0 0 C0.66 0 1.32 0 2 0 C2 1.65 2 3.3 2 5 C3.65 5 5.3 5 7 5 C7 5.99 7 6.98 7 8 C5.02 8 3.04 8 1 8 C1 11.63 1 15.26 1 19 C-2 16 -2 16 -2.36328125 12.71484375 C-2.34652344 11.46832031 -2.32976562 10.22179687 -2.3125 8.9375 C-2.30863281 7.68839844 -2.30476563 6.43929687 -2.30078125 5.15234375 C-2 2 -2 2 0 0 Z " fill="#464646" transform="translate(502,166)"/>
<path d="M0 0 C4.41653692 -0.08834886 8.83284148 -0.14083987 13.25 -0.1875 C15.10238281 -0.22520508 15.10238281 -0.22520508 16.9921875 -0.26367188 C24.9802519 -0.32673554 32.44160536 0.2253284 40 3 C40.66 3.66 41.32 4.32 42 5 C37.545 5.495 37.545 5.495 33 6 C33 5.34 33 4.68 33 4 C30.06614626 2.53307313 27.29191619 2.66414123 24.0234375 2.46484375 C23.33819 2.42186661 22.6529425 2.37888947 21.94692993 2.33460999 C19.75651568 2.1981713 17.56578911 2.06776703 15.375 1.9375 C13.89060051 1.84610007 12.4062251 1.75430808 10.921875 1.66210938 C7.28151858 1.43685483 3.64085818 1.21701107 0 1 C0 0.67 0 0.34 0 0 Z " fill="#9A9A9A" transform="translate(660,84)"/>
<path d="M0 0 C0.33 0 0.66 0 1 0 C1 1.65 1 3.3 1 5 C-1.97 5 -4.94 5 -8 5 C-7.34 6.32 -6.68 7.64 -6 9 C-4.35 8.34 -2.7 7.68 -1 7 C-0.67 8.32 -0.34 9.64 0 11 C-3.66865241 13.44576827 -5.67200343 13.23607254 -10 13 C-10.66 12.67 -11.32 12.34 -12 12 C-12 11.34 -12 10.68 -12 10 C-11.01 10 -10.02 10 -9 10 C-9 8.02 -9 6.04 -9 4 C-6.03 4 -3.06 4 0 4 C0 2.68 0 1.36 0 0 Z " fill="#737372" transform="translate(435,175)"/>
<path d="M0 0 C1.32 0 2.64 0 4 0 C4.07347656 1.28197266 4.07347656 1.28197266 4.1484375 2.58984375 C4.22320312 3.69457031 4.29796875 4.79929688 4.375 5.9375 C4.44460938 7.03964844 4.51421875 8.14179688 4.5859375 9.27734375 C4.72257812 10.17582031 4.85921875 11.07429687 5 12 C5.66 12.33 6.32 12.66 7 13 C4.6875 13.3125 4.6875 13.3125 2 13 C-0.15659447 10.69963256 -1.02184145 9.07420237 -0.95703125 5.88671875 C-0.71519571 3.91348095 -0.36436583 1.95432581 0 0 Z " fill="#535353" transform="translate(466,174)"/>
<path d="M0 0 C0.66 0 1.32 0 2 0 C1.67 1.65 1.34 3.3 1 5 C2.65 5 4.3 5 6 5 C6.33 3.35 6.66 1.7 7 0 C7.99 0.33 8.98 0.66 10 1 C10.38218767 2.65614657 10.71395102 4.32457024 11 6 C10 7 10 7 7.71484375 7.09765625 C6.34005859 7.08025391 6.34005859 7.08025391 4.9375 7.0625 C4.01839844 7.05347656 3.09929688 7.04445312 2.15234375 7.03515625 C1.44207031 7.02355469 0.73179687 7.01195312 0 7 C-0.33 7.66 -0.66 8.32 -1 9 C-1.66 8.67 -2.32 8.34 -3 8 C-2.67 6.68 -2.34 5.36 -2 4 C-1.67 4 -1.34 4 -1 4 C-0.67 2.68 -0.34 1.36 0 0 Z " fill="#373735" transform="translate(683,173)"/>
<path d="M0 0 C4.01628463 2.06241643 6.125395 3.85613631 8 8 C8.25 10.75 8.25 10.75 8 13 C7 14 7 14 3.62109375 14.09765625 C2.22652923 14.09098369 0.83198257 14.07902532 -0.5625 14.0625 C-1.62887695 14.05573242 -1.62887695 14.05573242 -2.71679688 14.04882812 C-4.47790013 14.03700864 -6.23896036 14.01907263 -8 14 C-8.33 13.34 -8.66 12.68 -9 12 C-5.04 12.33 -1.08 12.66 3 13 C2.67 11.68 2.34 10.36 2 9 C2.66 8.67 3.32 8.34 4 8 C3.72382467 6.05925139 3.72382467 6.05925139 3 4 C2.01 3.34 1.02 2.68 0 2 C0 1.34 0 0.68 0 0 Z " fill="#818181" transform="translate(328,88)"/>
<path d="M0 0 C-0.33 1.65 -0.66 3.3 -1 5 C-1.94875 4.814375 -2.8975 4.62875 -3.875 4.4375 C-6.89868793 3.71313368 -6.89868793 3.71313368 -9 5 C-9 4.01 -9 3.02 -9 2 C-9.66 2 -10.32 2 -11 2 C-10.67 4.31 -10.34 6.62 -10 9 C-11.5625 7.8125 -11.5625 7.8125 -13 6 C-12.9375 3.4375 -12.9375 3.4375 -12 1 C-8.46773496 -2.10839324 -4.27701016 -0.71283503 0 0 Z " fill="#808080" transform="translate(639,171)"/>
<path d="M0 0 C2.875 0.75 2.875 0.75 4.875 1.75 C4.545 2.41 4.215 3.07 3.875 3.75 C3.215 3.75 2.555 3.75 1.875 3.75 C1.875 7.05 1.875 10.35 1.875 13.75 C1.545 13.75 1.215 13.75 0.875 13.75 C0.545 10.78 0.215 7.81 -0.125 4.75 C-0.785 4.75 -1.445 4.75 -2.125 4.75 C-2.455 7.39 -2.785 10.03 -3.125 12.75 C-3.455 12.75 -3.785 12.75 -4.125 12.75 C-4.125 9.78 -4.125 6.81 -4.125 3.75 C-5.115 3.42 -6.105 3.09 -7.125 2.75 C-4.56024472 0.28388916 -3.63199048 -0.29055924 0 0 Z " fill="#A3A3A2" transform="translate(474.125,170.25)"/>
<path d="M0 0 C2.475 0.495 2.475 0.495 5 1 C4.67 1.66 4.34 2.32 4 3 C3.77141886 5.0374763 3.58975722 7.08040303 3.4375 9.125 C3.35371094 10.22070312 3.26992188 11.31640625 3.18359375 12.4453125 C3.12300781 13.28835937 3.06242187 14.13140625 3 15 C2.01 15 1.02 15 0 15 C0 10.05 0 5.1 0 0 Z " fill="#161614" transform="translate(280,172)"/>
<path d="M0 0 C0.99 0 1.98 0 3 0 C3.06058594 0.91523438 3.12117188 1.83046875 3.18359375 2.7734375 C3.26738281 3.96195313 3.35117187 5.15046875 3.4375 6.375 C3.51871094 7.55835938 3.59992188 8.74171875 3.68359375 9.9609375 C3.81084936 12.91518901 3.81084936 12.91518901 5 15 C3.35 15 1.7 15 0 15 C0 10.05 0 5.1 0 0 Z " fill="#161615" transform="translate(374,172)"/>
<path d="M0 0 C2.97 0 5.94 0 9 0 C8.67 1.32 8.34 2.64 8 4 C6.68 3.67 5.36 3.34 4 3 C4 4.65 4 6.3 4 8 C5.65 8 7.3 8 9 8 C8.67 8.99 8.34 9.98 8 11 C8 10.34 8 9.68 8 9 C6.35 9 4.7 9 3 9 C3 7.02 3 5.04 3 3 C2.01 3 1.02 3 0 3 C-0.33 3.66 -0.66 4.32 -1 5 C-0.67 3.35 -0.34 1.7 0 0 Z " fill="#7B7B7B" transform="translate(455,163)"/>
<path d="M0 0 C0.99 0.33 1.98 0.66 3 1 C1.125 4.875 1.125 4.875 0 6 C-6.46153846 6.35897436 -6.46153846 6.35897436 -10 4 C-10 3.34 -10 2.68 -10 2 C-8.72125 2.04125 -7.4425 2.0825 -6.125 2.125 C-3.98128508 2.24212873 -3.98128508 2.24212873 -2 2 C-1.34 1.34 -0.68 0.68 0 0 Z " fill="#7A7A79" transform="translate(653,182)"/>
<path d="M0 0 C0.99 0 1.98 0 3 0 C4.09506492 3.28519475 4.09960608 5.73663415 4.0625 9.1875 C4.05347656 10.27417969 4.04445313 11.36085937 4.03515625 12.48046875 C4.02355469 13.31191406 4.01195312 14.14335937 4 15 C3.01 15 2.02 15 1 15 C0.67 10.05 0.34 5.1 0 0 Z " fill="#111110" transform="translate(288,172)"/>
<path d="M0 0 C0.66 0 1.32 0 2 0 C2.33 1.98 2.66 3.96 3 6 C-1.41062136 7.0257259 -3.92630576 7.03684712 -8 5 C-7.67 3.68 -7.34 2.36 -7 1 C-4.69 1.33 -2.38 1.66 0 2 C0 1.34 0 0.68 0 0 Z " fill="#727271" transform="translate(390,182)"/>
<path d="M0 0 C0.66 0 1.32 0 2 0 C3.44207941 2.88415883 3.09394887 5.41721528 3.0625 8.625 C3.05347656 9.81351563 3.04445313 11.00203125 3.03515625 12.2265625 C3.02355469 13.14179688 3.01195312 14.05703125 3 15 C2.01 15 1.02 15 0 15 C0 10.05 0 5.1 0 0 Z " fill="#151513" transform="translate(730,172)"/>
<path d="M0 0 C0.33 1.32 0.66 2.64 1 4 C2.98 3.67 4.96 3.34 7 3 C7.33 2.01 7.66 1.02 8 0 C8.66 0 9.32 0 10 0 C10 1.65 10 3.3 10 5 C7.03 5 4.06 5 1 5 C0.67 6.32 0.34 7.64 0 9 C-0.66 9 -1.32 9 -2 9 C-2 6.36 -2 3.72 -2 1 C-1.34 0.67 -0.68 0.34 0 0 Z " fill="#161614" transform="translate(401,174)"/>
<path d="M0 0 C2.01830292 1.02886845 3.96411302 2.11113956 5.88671875 3.30859375 C5.24734375 3.59734375 4.60796875 3.88609375 3.94921875 4.18359375 C1.73465796 5.13682826 1.73465796 5.13682826 0.88671875 7.30859375 C-0.10328125 6.97859375 -1.09328125 6.64859375 -2.11328125 6.30859375 C-2.44328125 5.64859375 -2.77328125 4.98859375 -3.11328125 4.30859375 C-5.12997952 3.17508841 -5.12997952 3.17508841 -7.11328125 2.30859375 C-4.68396102 0.18293855 -3.21258247 -1.05106672 0 0 Z " fill="#535353" transform="translate(153.11328125,82.69140625)"/>
<path d="M0 0 C0.99 0.33 1.98 0.66 3 1 C1.125 4.875 1.125 4.875 0 6 C-2.33297433 6.04092937 -4.66705225 6.04241723 -7 6 C-7.33 4.68 -7.66 3.36 -8 2 C-6 1 -6 1 -4 1.5625 C-3.01 1.7790625 -3.01 1.7790625 -2 2 C-1.34 1.34 -0.68 0.68 0 0 Z " fill="#6A6A68" transform="translate(690,182)"/>
<path d="M0 0 C2 1 2 1 3 2 C3.07258946 4.18639453 3.08373783 6.37500389 3.0625 8.5625 C3.05347656 9.76003906 3.04445313 10.95757812 3.03515625 12.19140625 C3.02355469 13.11824219 3.01195312 14.04507813 3 15 C2.01 15 1.02 15 0 15 C0 10.05 0 5.1 0 0 Z " fill="#191917" transform="translate(347,172)"/>
<path d="M0 0 C0.99 0 1.98 0 3 0 C3.04898438 0.77085937 3.09796875 1.54171875 3.1484375 2.3359375 C3.22320313 3.33882812 3.29796875 4.34171875 3.375 5.375 C3.44460938 6.37273437 3.51421875 7.37046875 3.5859375 8.3984375 C3.76363964 11.15508879 3.76363964 11.15508879 6 13 C4.33388095 13.042721 2.66617115 13.04063832 1 13 C0 12 0 12 -0.09765625 9.27734375 C-0.08605469 8.17519531 -0.07445312 7.07304687 -0.0625 5.9375 C-0.05347656 4.83277344 -0.04445313 3.72804687 -0.03515625 2.58984375 C-0.02355469 1.73519531 -0.01195312 0.88054687 0 0 Z " fill="#161616" transform="translate(699,174)"/>
<path d="M0 0 C0.66 0.33 1.32 0.66 2 1 C2 5.29 2 9.58 2 14 C1.01 14 0.02 14 -1 14 C-1.02685938 11.85423363 -1.04633088 9.70837355 -1.0625 7.5625 C-1.07410156 6.36753906 -1.08570313 5.17257813 -1.09765625 3.94140625 C-1 1 -1 1 0 0 Z " fill="#151513" transform="translate(754,173)"/>
<path d="M0 0 C2.5 2.3125 2.5 2.3125 5 5 C5 5.99 5 6.98 5 8 C2.75 8.3125 2.75 8.3125 0 8 C-2.3125 5.5 -2.3125 5.5 -4 3 C-2.68 2.67 -1.36 2.34 0 2 C0 1.34 0 0.68 0 0 Z " fill="#6D6D6C" transform="translate(572,180)"/>
<path d="M0 0 C0.99 0 1.98 0 3 0 C3 4.29 3 8.58 3 13 C2.01 12.67 1.02 12.34 0 12 C0 8.04 0 4.08 0 0 Z " fill="#141412" transform="translate(581,172)"/>
<path d="M0 0 C0 0.99 0 1.98 0 3 C-0.66 2.67 -1.32 2.34 -2 2 C-2.33 3.32 -2.66 4.64 -3 6 C-4.65 6 -6.3 6 -8 6 C-8 4.35 -8 2.7 -8 1 C-8.66 0.67 -9.32 0.34 -10 0 C-6.22996568 -2.61002376 -4.07631429 -1.66758312 0 0 Z M-6 2 C-6.33 2.99 -6.66 3.98 -7 5 C-6.01 5 -5.02 5 -4 5 C-4 4.01 -4 3.02 -4 2 C-4.66 2 -5.32 2 -6 2 Z " fill="#888888" transform="translate(434,172)"/>
<path d="M0 0 C0 4.29 0 8.58 0 13 C-0.99 13 -1.98 13 -3 13 C-3 9.04 -3 5.08 -3 1 C-1 0 -1 0 0 0 Z " fill="#141414" transform="translate(594,174)"/>
<path d="M0 0 C0.33 0 0.66 0 1 0 C1 4.29 1 8.58 1 13 C0.01 13 -0.98 13 -2 13 C-2.05391993 11.20866022 -2.09275571 9.41686101 -2.125 7.625 C-2.14820313 6.62726563 -2.17140625 5.62953125 -2.1953125 4.6015625 C-2 2 -2 2 0 0 Z " fill="#191918" transform="translate(457,174)"/>
<path d="M0 0 C0.99 0.33 1.98 0.66 3 1 C3 4.96 3 8.92 3 13 C2.01 13 1.02 13 0 13 C0 8.71 0 4.42 0 0 Z " fill="#141411" transform="translate(441,174)"/>
<path d="M0 0 C0.99 0.33 1.98 0.66 3 1 C1.125 4.875 1.125 4.875 0 6 C-2.67058851 6.14115161 -5.32432238 6.04247107 -8 6 C-8 5.01 -8 4.02 -8 3 C-5.03 3.495 -5.03 3.495 -2 4 C-1.34 2.68 -0.68 1.36 0 0 Z " fill="#737372" transform="translate(409,182)"/>
<path d="M0 0 C0.99 0 1.98 0 3 0 C3 3.96 3 7.92 3 12 C2.01 12.495 2.01 12.495 1 13 C-0.00496852 9.98509443 -0.10335303 7.95818308 -0.0625 4.8125 C-0.05347656 3.91144531 -0.04445313 3.01039063 -0.03515625 2.08203125 C-0.02355469 1.39496094 -0.01195312 0.70789063 0 0 Z " fill="#171715" transform="translate(711,172)"/>
<path d="M0 0 C1.32 0.33 2.64 0.66 4 1 C5.25 7.625 5.25 7.625 3 11 C2.34 10.67 1.68 10.34 1 10 C0.5859375 7.71484375 0.5859375 7.71484375 0.375 4.9375 C0.30023438 4.01839844 0.22546875 3.09929687 0.1484375 2.15234375 C0.09945313 1.44207031 0.05046875 0.73179687 0 0 Z " fill="#1C1C1A" transform="translate(475,173)"/>
<path d="M0 0 C2.33944736 0.28730055 4.6739143 0.61936779 7 1 C7 1.99 7 2.98 7 4 C5.68 4 4.36 4 3 4 C3 7.3 3 10.6 3 14 C2.67 14 2.34 14 2 14 C1.92652344 13.09507812 1.92652344 13.09507812 1.8515625 12.171875 C1.77679687 11.37265625 1.70203125 10.5734375 1.625 9.75 C1.55539062 8.96109375 1.48578125 8.1721875 1.4140625 7.359375 C0.98492887 4.914123 0.21399362 3.15163097 -1 1 C-0.67 0.67 -0.34 0.34 0 0 Z " fill="#656565" transform="translate(700,171)"/>
<path d="M0 0 C0.99 0.33 1.98 0.66 3 1 C3 4.63 3 8.26 3 12 C2.01 12 1.02 12 0 12 C0 8.04 0 4.08 0 0 Z " fill="#161614" transform="translate(485,175)"/>
<path d="M0 0 C0.99 0 1.98 0 3 0 C3 3.63 3 7.26 3 11 C2.01 11 1.02 11 0 11 C0 7.37 0 3.74 0 0 Z " fill="#141414" transform="translate(327,176)"/>
<path d="M0 0 C0.66 0.33 1.32 0.66 2 1 C1.67 6.94 1.34 12.88 1 19 C0.67 19 0.34 19 0 19 C0 15.37 0 11.74 0 8 C-0.99 7.67 -1.98 7.34 -3 7 C-3 6.01 -3 5.02 -3 4 C-2.01 4 -1.02 4 0 4 C0 2.68 0 1.36 0 0 Z " fill="#818181" transform="translate(499,167)"/>
<path d="M0 0 C0.33 0 0.66 0 1 0 C1 4.29 1 8.58 1 13 C-3.62 13 -8.24 13 -13 13 C-13 12.67 -13 12.34 -13 12 C-12.38511719 11.93941406 -11.77023437 11.87882813 -11.13671875 11.81640625 C-9.92435547 11.69072266 -9.92435547 11.69072266 -8.6875 11.5625 C-7.88699219 11.48128906 -7.08648438 11.40007812 -6.26171875 11.31640625 C-3.83912821 11.04734307 -3.83912821 11.04734307 -1 10 C-0.67 6.7 -0.34 3.4 0 0 Z " fill="#131311" transform="translate(733,124)"/>
<path d="M0 0 C2.00476438 1.92123253 2.93016331 3.4301731 3.26953125 6.19921875 C3.310674 8.52191423 3.34177671 10.70077487 3 13 C2.34 13.66 1.68 14.32 1 15 C1 13.35 1 11.7 1 10 C0.34 9.67 -0.32 9.34 -1 9 C-0.34 9 0.32 9 1 9 C0.649375 8.071875 0.29875 7.14375 -0.0625 6.1875 C-1 3 -1 3 0 0 Z " fill="#777776" transform="translate(252,142)"/>
<path d="M0 0 C1.485 0.99 1.485 0.99 3 2 C3.29296875 4.1640625 3.29296875 4.1640625 3.1875 6.625 C3.16042969 7.44226563 3.13335938 8.25953125 3.10546875 9.1015625 C3.07066406 9.72804687 3.03585937 10.35453125 3 11 C2.01 11 1.02 11 0 11 C0 7.37 0 3.74 0 0 Z " fill="#1B1B18" transform="translate(537,176)"/>
<path d="M0 0 C2.31 0.66 4.62 1.32 7 2 C3.25 3.125 3.25 3.125 1 2 C1 2.66 1 3.32 1 4 C3.97 4 6.94 4 10 4 C9.34 4.66 8.68 5.32 8 6 C5.27130593 5.96712417 2.7033382 5.43602229 0 5 C-0.5625 3.0625 -0.5625 3.0625 -1 1 C-0.67 0.67 -0.34 0.34 0 0 Z " fill="#999999" transform="translate(761,183)"/>
<path d="M0 0 C0.33 0 0.66 0 1 0 C1 1.98 1 3.96 1 6 C2.32 5.67 3.64 5.34 5 5 C5.33 6.32 5.66 7.64 6 9 C5.34 9 4.68 9 4 9 C4 9.99 4 10.98 4 12 C3.01 11.67 2.02 11.34 1 11 C-0.20272819 8.59454362 -0.10071472 7.05003047 -0.0625 4.375 C-0.05347656 3.55773437 -0.04445313 2.74046875 -0.03515625 1.8984375 C-0.02355469 1.27195313 -0.01195312 0.64546875 0 0 Z " fill="#7A7A79" transform="translate(679,175)"/>
<path d="M0 0 C1.485 0.99 1.485 0.99 3 2 C3.29296875 4.6015625 3.29296875 4.6015625 3.1875 7.625 C3.16042969 8.62789062 3.13335937 9.63078125 3.10546875 10.6640625 C3.07066406 11.43492187 3.03585937 12.20578125 3 13 C0.75393573 11.22555028 0.04918998 10.41647515 -0.29296875 7.51953125 C-0.25816406 6.62621094 -0.22335937 5.73289063 -0.1875 4.8125 C-0.16042969 3.91144531 -0.13335937 3.01039063 -0.10546875 2.08203125 C-0.07066406 1.39496094 -0.03585937 0.70789063 0 0 Z " fill="#131313" transform="translate(500,172)"/>
<path d="M0 0 C0.33 0.99 0.66 1.98 1 3 C1.66 3.33 2.32 3.66 3 4 C2.67 4.66 2.34 5.32 2 6 C1.77049681 8.204364 1.58924067 10.41392173 1.4375 12.625 C1.35371094 13.81351563 1.26992188 15.00203125 1.18359375 16.2265625 C1.12300781 17.14179688 1.06242187 18.05703125 1 19 C0.67 19 0.34 19 0 19 C0 14.71 0 10.42 0 6 C-0.66 6 -1.32 6 -2 6 C-2 5.01 -2 4.02 -2 3 C-1.34 3 -0.68 3 0 3 C0 2.01 0 1.02 0 0 Z " fill="#B0B0B0" transform="translate(453,168)"/>
<path d="M0 0 C1.98 0 3.96 0 6 0 C5.25 4.75 5.25 4.75 3 7 C0 3.375 0 3.375 0 0 Z " fill="#676766" transform="translate(561,171)"/>
<path d="M0 0 C1.65 0.33 3.3 0.66 5 1 C4.6875 2.9375 4.6875 2.9375 4 5 C3.01 5.33 2.02 5.66 1 6 C0.34 5.67 -0.32 5.34 -1 5 C-0.67 3.35 -0.34 1.7 0 0 Z " fill="#818181" transform="translate(374,163)"/>
<path d="M0 0 C1.9375 0.375 1.9375 0.375 4 1 C4.33 1.66 4.66 2.32 5 3 C4.01 3.99 3.02 4.98 2 6 C0.68 5.34 -0.64 4.68 -2 4 C-1.34 2.68 -0.68 1.36 0 0 Z " fill="#818181" transform="translate(581,163)"/>
<path d="M0 0 C3.3 1.65 6.6 3.3 10 5 C8.68 5.33 7.36 5.66 6 6 C5.01 6.33 4.02 6.66 3 7 C0 2.25 0 2.25 0 0 Z " fill="#545453" transform="translate(210,115)"/>
<path d="M0 0 C0.66 0 1.32 0 2 0 C2.33 0.99 2.66 1.98 3 3 C3.66 2.67 4.32 2.34 5 2 C5.66 3.98 6.32 5.96 7 8 C3.2089881 6.55049545 -0.3874638 4.84827434 -4 3 C-2.68 2.67 -1.36 2.34 0 2 C0 1.34 0 0.68 0 0 Z " fill="#61615F" transform="translate(177,70)"/>
<path d="M0 0 C3.3 0 6.6 0 10 0 C9.01 0.33 8.02 0.66 7 1 C7 1.66 7 2.32 7 3 C5.02 3.33 3.04 3.66 1 4 C0.67 2.68 0.34 1.36 0 0 Z " fill="#727272" transform="translate(546,171)"/>
<path d="M0 0 C2.125 0.375 2.125 0.375 4 1 C4 2.32 4 3.64 4 5 C2.68 5.33 1.36 5.66 0 6 C-0.66 4.68 -1.32 3.36 -2 2 C-1.34 1.34 -0.68 0.68 0 0 Z " fill="#7C7C7C" transform="translate(308,163)"/>
<path d="M0 0 C-0.3125 1.9375 -0.3125 1.9375 -1 4 C-1.99 4.33 -2.98 4.66 -4 5 C-4.66 4.67 -5.32 4.34 -6 4 C-6 2.68 -6 1.36 -6 0 C-3.50907189 -1.24546405 -2.58919267 -0.7767578 0 0 Z " fill="#7D7D7D" transform="translate(623,164)"/>
<path d="M0 0 C2.125 0.375 2.125 0.375 4 1 C4 2.32 4 3.64 4 5 C2.68 5.33 1.36 5.66 0 6 C-0.66 4.68 -1.32 3.36 -2 2 C-1.34 1.34 -0.68 0.68 0 0 Z " fill="#7D7D7D" transform="translate(337,163)"/>
<path d="M0 0 C5.61 0 11.22 0 17 0 C17 0.33 17 0.66 17 1 C12.38 1.33 7.76 1.66 3 2 C2.67 3.65 2.34 5.3 2 7 C0 4 0 4 0 0 Z " fill="#717171" transform="translate(283,120)"/>
<path d="M0 0 C0.33 0 0.66 0 1 0 C1.33 1.98 1.66 3.96 2 6 C2.99 5.67 3.98 5.34 5 5 C5.33 6.65 5.66 8.3 6 10 C3.03 9.505 3.03 9.505 0 9 C0 6.03 0 3.06 0 0 Z " fill="#616160" transform="translate(642,175)"/>
<path d="M0 0 C3 3 3 3 3.29296875 5.04296875 C3.1953125 7.02864583 3.09765625 9.01432292 3 11 C2.01 11 1.02 11 0 11 C0 7.37 0 3.74 0 0 Z " fill="#171715" transform="translate(600,176)"/>
<path d="M0 0 C0.33 0.99 0.66 1.98 1 3 C1.99 3 2.98 3 4 3 C4.33 2.34 4.66 1.68 5 1 C5.33 1.99 5.66 2.98 6 4 C6.66 4.33 7.32 4.66 8 5 C8 3.35 8 1.7 8 0 C8.33 0 8.66 0 9 0 C9 1.98 9 3.96 9 6 C6.03 6 3.06 6 0 6 C0 4.02 0 2.04 0 0 Z " fill="#808080" transform="translate(647,174)"/>
<path d="M0 0 C0.66 0.33 1.32 0.66 2 1 C2 1.66 2 2.32 2 3 C2.99 3 3.98 3 5 3 C5 3.99 5 4.98 5 6 C3.02 6 1.04 6 -1 6 C-1.042721 4.33388095 -1.04063832 2.66617115 -1 1 C-0.67 0.67 -0.34 0.34 0 0 Z " fill="#5D5D5B" transform="translate(309,182)"/>
<path d="M0 0 C0.99 0.66 1.98 1.32 3 2 C3 3.32 3 4.64 3 6 C0.03 6 -2.94 6 -6 6 C-6 5.67 -6 5.34 -6 5 C-4.35 5 -2.7 5 -1 5 C-0.67 3.35 -0.34 1.7 0 0 Z " fill="#1A1A1A" transform="translate(432,173)"/>
<path d="M0 0 C0.66 0.66 1.32 1.32 2 2 C2.66 1.67 3.32 1.34 4 1 C3.3125 2.9375 3.3125 2.9375 2 5 C-0.625 5.75 -0.625 5.75 -3 6 C-2.42655063 3.13275314 -2.1385485 2.1385485 0 0 Z " fill="#7F7F7E" transform="translate(564,182)"/>
<path d="M0 0 C0.66 1.32 1.32 2.64 2 4 C3.65 4 5.3 4 7 4 C4.33333333 5.33333333 1.66666667 6.66666667 -1 8 C-1.04241723 5.66705225 -1.04092937 3.33297433 -1 1 C-0.67 0.67 -0.34 0.34 0 0 Z " fill="#181817" transform="translate(644,174)"/>
<path d="M0 0 C0.66 0 1.32 0 2 0 C2 0.99 2 1.98 2 3 C2.99 3.33 3.98 3.66 5 4 C5.33 4.99 5.66 5.98 6 7 C4.35 7 2.7 7 1 7 C0.67 4.69 0.34 2.38 0 0 Z " fill="#1C1C1B" transform="translate(628,173)"/>
<path d="M0 0 C1.32 0 2.64 0 4 0 C3.34 3.96 2.68 7.92 2 12 C1.67 12 1.34 12 1 12 C1 9.03 1 6.06 1 3 C0.01 2.67 -0.98 2.34 -2 2 C-1.34 1.34 -0.68 0.68 0 0 Z " fill="#797979" transform="translate(469,171)"/>
<path d="M0 0 C1.9453125 0.2421875 1.9453125 0.2421875 4.125 0.875 C4.84945313 1.07867187 5.57390625 1.28234375 6.3203125 1.4921875 C6.87460937 1.65976563 7.42890625 1.82734375 8 2 C8 2.33 8 2.66 8 3 C3.545 3.495 3.545 3.495 -1 4 C-1 5.65 -1 7.3 -1 9 C-1.66 8.67 -2.32 8.34 -3 8 C-2.25 2.25 -2.25 2.25 0 0 Z " fill="#787877" transform="translate(306,93)"/>
<path d="M0 0 C0.66 0.33 1.32 0.66 2 1 C2.144375 1.639375 2.28875 2.27875 2.4375 2.9375 C2.86165035 5.38210855 2.86165035 5.38210855 6 7 C4.00045254 7.04254356 1.99958364 7.04080783 0 7 C-1 6 -1 6 -1.125 3.5 C-1 1 -1 1 0 0 Z " fill="#171715" transform="translate(547,180)"/>
<path d="M0 0 C2.475 0.495 2.475 0.495 5 1 C5 2.98 5 4.96 5 7 C4.01 7 3.02 7 2 7 C2.33 5.68 2.66 4.36 3 3 C2.01 2.67 1.02 2.34 0 2 C0 1.34 0 0.68 0 0 Z " fill="#171715" transform="translate(389,179)"/>
<path d="M0 0 C1.65 0.33 3.3 0.66 5 1 C4.01 1.66 3.02 2.32 2 3 C1.41518879 5.88595946 1.41518879 5.88595946 1.3125 9.125 C1.24675781 10.22070312 1.18101562 11.31640625 1.11328125 12.4453125 C1.05720703 13.70988281 1.05720703 13.70988281 1 15 C0.34 14.67 -0.32 14.34 -1 14 C-0.67 9.38 -0.34 4.76 0 0 Z " fill="#2F2F2D" transform="translate(522,172)"/>
<path d="M0 0 C0.99 0.33 1.98 0.66 3 1 C2.34 2.32 1.68 3.64 1 5 C-1.31 5 -3.62 5 -6 5 C-5.38125 4.9175 -4.7625 4.835 -4.125 4.75 C-1.81562433 4.18741541 -1.81562433 4.18741541 -0.75 1.9375 C-0.5025 1.298125 -0.255 0.65875 0 0 Z " fill="#6F6F6F" transform="translate(653,182)"/>
<path d="M0 0 C3.96 1.98 3.96 1.98 8 4 C5.65832183 4.78055939 3.4164124 5.51671752 1 6 C0 5 0 5 -0.0625 2.4375 C-0.041875 1.633125 -0.02125 0.82875 0 0 Z " fill="#5C5C5B" transform="translate(226,124)"/>
<path d="M0 0 C2.64 0 5.28 0 8 0 C7.67 1.65 7.34 3.3 7 5 C5.35 4.67 3.7 4.34 2 4 C2.99 3.67 3.98 3.34 5 3 C5 2.34 5 1.68 5 1 C3.35 1 1.7 1 0 1 C0 0.67 0 0.34 0 0 Z " fill="#9B9B9B" transform="translate(670,171)"/>
<path d="M0 0 C0.33 0 0.66 0 1 0 C1.83796731 4.65537393 2.0161692 8.37078475 1 13 C-1.45410358 9.31884463 -1.23287843 7.34706402 -1 3 C-0.67 2.01 -0.34 1.02 0 0 Z " fill="#9B9B9A" transform="translate(49,144)"/>
<path d="M0 0 C0.66 0.33 1.32 0.66 2 1 C1.67 2.32 1.34 3.64 1 5 C-1.97 5 -4.94 5 -8 5 C-7.67 4.01 -7.34 3.02 -7 2 C-6.67 2.33 -6.34 2.66 -6 3 C-4.33382885 3.04063832 -2.66611905 3.042721 -1 3 C-0.67 2.01 -0.34 1.02 0 0 Z " fill="#161614" transform="translate(636,182)"/>
<path d="M0 0 C4.875 0.875 4.875 0.875 6 2 C6.04063832 3.66617115 6.042721 5.33388095 6 7 C5.01 6.67 4.02 6.34 3 6 C2.87625 5.195625 2.7525 4.39125 2.625 3.5625 C2.315625 2.2940625 2.315625 2.2940625 2 1 C1.34 0.67 0.68 0.34 0 0 Z " fill="#191919" transform="translate(649,172)"/>
<path d="M0 0 C0.99 0 1.98 0 3 0 C3 1.98 3 3.96 3 6 C2.01 6.33 1.02 6.66 0 7 C0 4.69 0 2.38 0 0 Z " fill="#191919" transform="translate(467,174)"/>
<path d="M0 0 C0.33 0.66 0.66 1.32 1 2 C1.66 2.33 2.32 2.66 3 3 C0.625 4.5625 0.625 4.5625 -2 6 C-2.66 5.67 -3.32 5.34 -4 5 C-4 4.01 -4 3.02 -4 2 C-2.68 1.34 -1.36 0.68 0 0 Z " fill="#575755" transform="translate(85,93)"/>
<path d="M0 0 C1.875 0.3125 1.875 0.3125 4 1 C4.66 1.99 5.32 2.98 6 4 C4.02 4.66 2.04 5.32 0 6 C0 4.02 0 2.04 0 0 Z " fill="#4C4C4B" transform="translate(106,79)"/>
<path d="M0 0 C0.66 0.33 1.32 0.66 2 1 C1.67 2.32 1.34 3.64 1 5 C-1.31 4.34 -3.62 3.68 -6 3 C-5.67 2.34 -5.34 1.68 -5 1 C-4.34 1.33 -3.68 1.66 -3 2 C-2.01 1.34 -1.02 0.68 0 0 Z " fill="#9E9E9E" transform="translate(433,182)"/>
<path d="M0 0 C2.97 0.495 2.97 0.495 6 1 C6 1.99 6 2.98 6 4 C4.35 4 2.7 4 1 4 C0.67 2.68 0.34 1.36 0 0 Z " fill="#646464" transform="translate(581,184)"/>
<path d="M0 0 C2.7839183 1.39195915 2.97898997 3.15575779 4 6 C2.35 6 0.7 6 -1 6 C-1.042721 4.33388095 -1.04063832 2.66617115 -1 1 C-0.67 0.67 -0.34 0.34 0 0 Z " fill="#252524" transform="translate(375,181)"/>
<path d="M0 0 C2.97 0 5.94 0 9 0 C9 0.99 9 1.98 9 3 C8.01 3 7.02 3 6 3 C6 2.34 6 1.68 6 1 C3.69 1.66 1.38 2.32 -1 3 C-0.67 2.01 -0.34 1.02 0 0 Z " fill="#313130" transform="translate(384,172)"/>
<path d="M0 0 C0.763125 0.20625 1.52625 0.4125 2.3125 0.625 C1.3225 0.955 0.3325 1.285 -0.6875 1.625 C-1.0175 2.615 -1.3475 3.605 -1.6875 4.625 C-2.6775 4.295 -3.6675 3.965 -4.6875 3.625 C-5.0175 2.965 -5.3475 2.305 -5.6875 1.625 C-2.6875 -0.375 -2.6875 -0.375 0 0 Z " fill="#747474" transform="translate(288.6875,170.375)"/>
<path d="M0 0 C2.97 0 5.94 0 9 0 C8.67 0.99 8.34 1.98 8 3 C6.68 2.34 5.36 1.68 4 1 C3.67 1.66 3.34 2.32 3 3 C2.01 2.67 1.02 2.34 0 2 C0 1.34 0 0.68 0 0 Z " fill="#161614" transform="translate(584,86)"/>
<path d="M0 0 C0.33 0.99 0.66 1.98 1 3 C0.34 3.66 -0.32 4.32 -1 5 C-3.26274788 4.64644564 -4.95088852 4.02455574 -7 3 C-2.25 0 -2.25 0 0 0 Z " fill="#1C1C1B" transform="translate(301,85)"/>
<path d="M0 0 C1.5 1.25 1.5 1.25 3 3 C3 4.32 3 5.64 3 7 C2.01 7 1.02 7 0 7 C0 4.69 0 2.38 0 0 Z " fill="#161614" transform="translate(356,180)"/>
<path d="M0 0 C0.99 0 1.98 0 3 0 C3 2.97 3 5.94 3 9 C1.35649921 5.71299843 0.58678331 3.52069985 0 0 Z " fill="#1C1C1B" transform="translate(288,172)"/>
<path d="" fill="#FEFEFE" transform="translate(0,0)"/>
<path d="" fill="#FEFEFE" transform="translate(0,0)"/>
<path d="" fill="#FEFEFE" transform="translate(0,0)"/>
<path d="" fill="#FEFEFE" transform="translate(0,0)"/>
<path d="" fill="#FEFEFE" transform="translate(0,0)"/>
</svg>
